%TF.GenerationSoftware,KiCad,Pcbnew,7.0.9*%
%TF.CreationDate,2024-01-18T20:35:56-05:00*%
%TF.ProjectId,mt6835-nema17,6d743638-3335-42d6-9e65-6d6131372e6b,rev?*%
%TF.SameCoordinates,PX85e0760PY599de50*%
%TF.FileFunction,Soldermask,Top*%
%TF.FilePolarity,Negative*%
%FSLAX46Y46*%
G04 Gerber Fmt 4.6, Leading zero omitted, Abs format (unit mm)*
G04 Created by KiCad (PCBNEW 7.0.9) date 2024-01-18 20:35:56*
%MOMM*%
%LPD*%
G01*
G04 APERTURE LIST*
G04 Aperture macros list*
%AMRoundRect*
0 Rectangle with rounded corners*
0 $1 Rounding radius*
0 $2 $3 $4 $5 $6 $7 $8 $9 X,Y pos of 4 corners*
0 Add a 4 corners polygon primitive as box body*
4,1,4,$2,$3,$4,$5,$6,$7,$8,$9,$2,$3,0*
0 Add four circle primitives for the rounded corners*
1,1,$1+$1,$2,$3*
1,1,$1+$1,$4,$5*
1,1,$1+$1,$6,$7*
1,1,$1+$1,$8,$9*
0 Add four rect primitives between the rounded corners*
20,1,$1+$1,$2,$3,$4,$5,0*
20,1,$1+$1,$4,$5,$6,$7,0*
20,1,$1+$1,$6,$7,$8,$9,0*
20,1,$1+$1,$8,$9,$2,$3,0*%
%AMFreePoly0*
4,1,19,0.500000,-0.750000,0.000000,-0.750000,0.000000,-0.744911,-0.071157,-0.744911,-0.207708,-0.704816,-0.327430,-0.627875,-0.420627,-0.520320,-0.479746,-0.390866,-0.500000,-0.250000,-0.500000,0.250000,-0.479746,0.390866,-0.420627,0.520320,-0.327430,0.627875,-0.207708,0.704816,-0.071157,0.744911,0.000000,0.744911,0.000000,0.750000,0.500000,0.750000,0.500000,-0.750000,0.500000,-0.750000,
$1*%
%AMFreePoly1*
4,1,19,0.000000,0.744911,0.071157,0.744911,0.207708,0.704816,0.327430,0.627875,0.420627,0.520320,0.479746,0.390866,0.500000,0.250000,0.500000,-0.250000,0.479746,-0.390866,0.420627,-0.520320,0.327430,-0.627875,0.207708,-0.704816,0.071157,-0.744911,0.000000,-0.744911,0.000000,-0.750000,-0.500000,-0.750000,-0.500000,0.750000,0.000000,0.750000,0.000000,0.744911,0.000000,0.744911,
$1*%
%AMFreePoly2*
4,1,19,0.550000,-0.750000,0.000000,-0.750000,0.000000,-0.744911,-0.071157,-0.744911,-0.207708,-0.704816,-0.327430,-0.627875,-0.420627,-0.520320,-0.479746,-0.390866,-0.500000,-0.250000,-0.500000,0.250000,-0.479746,0.390866,-0.420627,0.520320,-0.327430,0.627875,-0.207708,0.704816,-0.071157,0.744911,0.000000,0.744911,0.000000,0.750000,0.550000,0.750000,0.550000,-0.750000,0.550000,-0.750000,
$1*%
%AMFreePoly3*
4,1,19,0.000000,0.744911,0.071157,0.744911,0.207708,0.704816,0.327430,0.627875,0.420627,0.520320,0.479746,0.390866,0.500000,0.250000,0.500000,-0.250000,0.479746,-0.390866,0.420627,-0.520320,0.327430,-0.627875,0.207708,-0.704816,0.071157,-0.744911,0.000000,-0.744911,0.000000,-0.750000,-0.550000,-0.750000,-0.550000,0.750000,0.000000,0.750000,0.000000,0.744911,0.000000,0.744911,
$1*%
G04 Aperture macros list end*
%ADD10C,0.300000*%
%ADD11RoundRect,0.135000X0.185000X-0.135000X0.185000X0.135000X-0.185000X0.135000X-0.185000X-0.135000X0*%
%ADD12FreePoly0,90.000000*%
%ADD13FreePoly1,90.000000*%
%ADD14FreePoly2,270.000000*%
%ADD15R,1.500000X1.000000*%
%ADD16FreePoly3,270.000000*%
%ADD17RoundRect,0.140000X0.170000X-0.140000X0.170000X0.140000X-0.170000X0.140000X-0.170000X-0.140000X0*%
%ADD18R,1.050000X0.450000*%
%ADD19R,1.600000X0.400000*%
%ADD20R,1.800000X1.200000*%
%ADD21C,5.800000*%
%ADD22RoundRect,0.140000X-0.140000X-0.170000X0.140000X-0.170000X0.140000X0.170000X-0.140000X0.170000X0*%
%ADD23FreePoly0,270.000000*%
%ADD24FreePoly1,270.000000*%
G04 APERTURE END LIST*
D10*
X-8535490Y-16560828D02*
X-8535490Y-15560828D01*
X-8535490Y-15703685D02*
X-8464061Y-15632257D01*
X-8464061Y-15632257D02*
X-8321204Y-15560828D01*
X-8321204Y-15560828D02*
X-8106918Y-15560828D01*
X-8106918Y-15560828D02*
X-7964061Y-15632257D01*
X-7964061Y-15632257D02*
X-7892632Y-15775114D01*
X-7892632Y-15775114D02*
X-7892632Y-16560828D01*
X-7892632Y-15775114D02*
X-7821204Y-15632257D01*
X-7821204Y-15632257D02*
X-7678347Y-15560828D01*
X-7678347Y-15560828D02*
X-7464061Y-15560828D01*
X-7464061Y-15560828D02*
X-7321204Y-15632257D01*
X-7321204Y-15632257D02*
X-7249775Y-15775114D01*
X-7249775Y-15775114D02*
X-7249775Y-16560828D01*
X-6749775Y-15560828D02*
X-6178347Y-15560828D01*
X-6535490Y-15060828D02*
X-6535490Y-16346542D01*
X-6535490Y-16346542D02*
X-6464061Y-16489400D01*
X-6464061Y-16489400D02*
X-6321204Y-16560828D01*
X-6321204Y-16560828D02*
X-6178347Y-16560828D01*
X-5035489Y-15060828D02*
X-5321204Y-15060828D01*
X-5321204Y-15060828D02*
X-5464061Y-15132257D01*
X-5464061Y-15132257D02*
X-5535489Y-15203685D01*
X-5535489Y-15203685D02*
X-5678347Y-15417971D01*
X-5678347Y-15417971D02*
X-5749775Y-15703685D01*
X-5749775Y-15703685D02*
X-5749775Y-16275114D01*
X-5749775Y-16275114D02*
X-5678347Y-16417971D01*
X-5678347Y-16417971D02*
X-5606918Y-16489400D01*
X-5606918Y-16489400D02*
X-5464061Y-16560828D01*
X-5464061Y-16560828D02*
X-5178347Y-16560828D01*
X-5178347Y-16560828D02*
X-5035489Y-16489400D01*
X-5035489Y-16489400D02*
X-4964061Y-16417971D01*
X-4964061Y-16417971D02*
X-4892632Y-16275114D01*
X-4892632Y-16275114D02*
X-4892632Y-15917971D01*
X-4892632Y-15917971D02*
X-4964061Y-15775114D01*
X-4964061Y-15775114D02*
X-5035489Y-15703685D01*
X-5035489Y-15703685D02*
X-5178347Y-15632257D01*
X-5178347Y-15632257D02*
X-5464061Y-15632257D01*
X-5464061Y-15632257D02*
X-5606918Y-15703685D01*
X-5606918Y-15703685D02*
X-5678347Y-15775114D01*
X-5678347Y-15775114D02*
X-5749775Y-15917971D01*
X-4035490Y-15703685D02*
X-4178347Y-15632257D01*
X-4178347Y-15632257D02*
X-4249776Y-15560828D01*
X-4249776Y-15560828D02*
X-4321204Y-15417971D01*
X-4321204Y-15417971D02*
X-4321204Y-15346542D01*
X-4321204Y-15346542D02*
X-4249776Y-15203685D01*
X-4249776Y-15203685D02*
X-4178347Y-15132257D01*
X-4178347Y-15132257D02*
X-4035490Y-15060828D01*
X-4035490Y-15060828D02*
X-3749776Y-15060828D01*
X-3749776Y-15060828D02*
X-3606918Y-15132257D01*
X-3606918Y-15132257D02*
X-3535490Y-15203685D01*
X-3535490Y-15203685D02*
X-3464061Y-15346542D01*
X-3464061Y-15346542D02*
X-3464061Y-15417971D01*
X-3464061Y-15417971D02*
X-3535490Y-15560828D01*
X-3535490Y-15560828D02*
X-3606918Y-15632257D01*
X-3606918Y-15632257D02*
X-3749776Y-15703685D01*
X-3749776Y-15703685D02*
X-4035490Y-15703685D01*
X-4035490Y-15703685D02*
X-4178347Y-15775114D01*
X-4178347Y-15775114D02*
X-4249776Y-15846542D01*
X-4249776Y-15846542D02*
X-4321204Y-15989400D01*
X-4321204Y-15989400D02*
X-4321204Y-16275114D01*
X-4321204Y-16275114D02*
X-4249776Y-16417971D01*
X-4249776Y-16417971D02*
X-4178347Y-16489400D01*
X-4178347Y-16489400D02*
X-4035490Y-16560828D01*
X-4035490Y-16560828D02*
X-3749776Y-16560828D01*
X-3749776Y-16560828D02*
X-3606918Y-16489400D01*
X-3606918Y-16489400D02*
X-3535490Y-16417971D01*
X-3535490Y-16417971D02*
X-3464061Y-16275114D01*
X-3464061Y-16275114D02*
X-3464061Y-15989400D01*
X-3464061Y-15989400D02*
X-3535490Y-15846542D01*
X-3535490Y-15846542D02*
X-3606918Y-15775114D01*
X-3606918Y-15775114D02*
X-3749776Y-15703685D01*
X-2964062Y-15060828D02*
X-2035490Y-15060828D01*
X-2035490Y-15060828D02*
X-2535490Y-15632257D01*
X-2535490Y-15632257D02*
X-2321205Y-15632257D01*
X-2321205Y-15632257D02*
X-2178347Y-15703685D01*
X-2178347Y-15703685D02*
X-2106919Y-15775114D01*
X-2106919Y-15775114D02*
X-2035490Y-15917971D01*
X-2035490Y-15917971D02*
X-2035490Y-16275114D01*
X-2035490Y-16275114D02*
X-2106919Y-16417971D01*
X-2106919Y-16417971D02*
X-2178347Y-16489400D01*
X-2178347Y-16489400D02*
X-2321205Y-16560828D01*
X-2321205Y-16560828D02*
X-2749776Y-16560828D01*
X-2749776Y-16560828D02*
X-2892633Y-16489400D01*
X-2892633Y-16489400D02*
X-2964062Y-16417971D01*
X-678348Y-15060828D02*
X-1392634Y-15060828D01*
X-1392634Y-15060828D02*
X-1464062Y-15775114D01*
X-1464062Y-15775114D02*
X-1392634Y-15703685D01*
X-1392634Y-15703685D02*
X-1249776Y-15632257D01*
X-1249776Y-15632257D02*
X-892634Y-15632257D01*
X-892634Y-15632257D02*
X-749776Y-15703685D01*
X-749776Y-15703685D02*
X-678348Y-15775114D01*
X-678348Y-15775114D02*
X-606919Y-15917971D01*
X-606919Y-15917971D02*
X-606919Y-16275114D01*
X-606919Y-16275114D02*
X-678348Y-16417971D01*
X-678348Y-16417971D02*
X-749776Y-16489400D01*
X-749776Y-16489400D02*
X-892634Y-16560828D01*
X-892634Y-16560828D02*
X-1249776Y-16560828D01*
X-1249776Y-16560828D02*
X-1392634Y-16489400D01*
X-1392634Y-16489400D02*
X-1464062Y-16417971D01*
X1178794Y-15560828D02*
X1178794Y-16560828D01*
X1178794Y-15703685D02*
X1250223Y-15632257D01*
X1250223Y-15632257D02*
X1393080Y-15560828D01*
X1393080Y-15560828D02*
X1607366Y-15560828D01*
X1607366Y-15560828D02*
X1750223Y-15632257D01*
X1750223Y-15632257D02*
X1821652Y-15775114D01*
X1821652Y-15775114D02*
X1821652Y-16560828D01*
X3107366Y-16489400D02*
X2964509Y-16560828D01*
X2964509Y-16560828D02*
X2678795Y-16560828D01*
X2678795Y-16560828D02*
X2535937Y-16489400D01*
X2535937Y-16489400D02*
X2464509Y-16346542D01*
X2464509Y-16346542D02*
X2464509Y-15775114D01*
X2464509Y-15775114D02*
X2535937Y-15632257D01*
X2535937Y-15632257D02*
X2678795Y-15560828D01*
X2678795Y-15560828D02*
X2964509Y-15560828D01*
X2964509Y-15560828D02*
X3107366Y-15632257D01*
X3107366Y-15632257D02*
X3178795Y-15775114D01*
X3178795Y-15775114D02*
X3178795Y-15917971D01*
X3178795Y-15917971D02*
X2464509Y-16060828D01*
X3821651Y-16560828D02*
X3821651Y-15560828D01*
X3821651Y-15703685D02*
X3893080Y-15632257D01*
X3893080Y-15632257D02*
X4035937Y-15560828D01*
X4035937Y-15560828D02*
X4250223Y-15560828D01*
X4250223Y-15560828D02*
X4393080Y-15632257D01*
X4393080Y-15632257D02*
X4464509Y-15775114D01*
X4464509Y-15775114D02*
X4464509Y-16560828D01*
X4464509Y-15775114D02*
X4535937Y-15632257D01*
X4535937Y-15632257D02*
X4678794Y-15560828D01*
X4678794Y-15560828D02*
X4893080Y-15560828D01*
X4893080Y-15560828D02*
X5035937Y-15632257D01*
X5035937Y-15632257D02*
X5107366Y-15775114D01*
X5107366Y-15775114D02*
X5107366Y-16560828D01*
X6464509Y-16560828D02*
X6464509Y-15775114D01*
X6464509Y-15775114D02*
X6393080Y-15632257D01*
X6393080Y-15632257D02*
X6250223Y-15560828D01*
X6250223Y-15560828D02*
X5964509Y-15560828D01*
X5964509Y-15560828D02*
X5821651Y-15632257D01*
X6464509Y-16489400D02*
X6321651Y-16560828D01*
X6321651Y-16560828D02*
X5964509Y-16560828D01*
X5964509Y-16560828D02*
X5821651Y-16489400D01*
X5821651Y-16489400D02*
X5750223Y-16346542D01*
X5750223Y-16346542D02*
X5750223Y-16203685D01*
X5750223Y-16203685D02*
X5821651Y-16060828D01*
X5821651Y-16060828D02*
X5964509Y-15989400D01*
X5964509Y-15989400D02*
X6321651Y-15989400D01*
X6321651Y-15989400D02*
X6464509Y-15917971D01*
X7964509Y-16560828D02*
X7107366Y-16560828D01*
X7535937Y-16560828D02*
X7535937Y-15060828D01*
X7535937Y-15060828D02*
X7393080Y-15275114D01*
X7393080Y-15275114D02*
X7250223Y-15417971D01*
X7250223Y-15417971D02*
X7107366Y-15489400D01*
X8464508Y-15060828D02*
X9464508Y-15060828D01*
X9464508Y-15060828D02*
X8821651Y-16560828D01*
D11*
%TO.C,R101*%
X-4170000Y1350000D03*
X-4170000Y330000D03*
%TD*%
D12*
%TO.C,JP105*%
X-6430000Y-9340000D03*
D13*
X-6430000Y-8040000D03*
%TD*%
D14*
%TO.C,JP102*%
X3130000Y-8060000D03*
D15*
X3130000Y-9360000D03*
D16*
X3130000Y-10660000D03*
%TD*%
D17*
%TO.C,C101*%
X-14370000Y4050000D03*
X-14370000Y5010000D03*
%TD*%
D18*
%TO.C,U101*%
X-2775000Y2275000D03*
X-2775000Y1625000D03*
X-2775000Y975000D03*
X-2775000Y325000D03*
X-2775000Y-325000D03*
X-2775000Y-975000D03*
X-2775000Y-1625000D03*
X-2775000Y-2275000D03*
X2775000Y-2275000D03*
X2775000Y-1625000D03*
X2775000Y-975000D03*
X2775000Y-325000D03*
X2775000Y325000D03*
X2775000Y975000D03*
X2775000Y1625000D03*
X2775000Y2275000D03*
%TD*%
D19*
%TO.C,J101*%
X-15972500Y3990000D03*
X-15972500Y2990000D03*
X-15972500Y1990000D03*
X-15972500Y990000D03*
X-15972500Y-10000D03*
X-15972500Y-1010000D03*
X-15972500Y-2010000D03*
X-15972500Y-3010000D03*
X-15972500Y-4010000D03*
D20*
X-19552500Y-5110000D03*
X-19552500Y5090000D03*
%TD*%
D14*
%TO.C,JP104*%
X-3020000Y-8080000D03*
D15*
X-3020000Y-9380000D03*
D16*
X-3020000Y-10680000D03*
%TD*%
D21*
%TO.C,H101*%
X-15500000Y15500000D03*
X-15500000Y-15500000D03*
X15500000Y15500000D03*
X15500000Y-15500000D03*
%TD*%
D22*
%TO.C,C103*%
X4070000Y-1340000D03*
X5030000Y-1340000D03*
%TD*%
%TO.C,C102*%
X4080000Y-2350000D03*
X5040000Y-2350000D03*
%TD*%
D14*
%TO.C,JP103*%
X0Y-8060000D03*
D15*
X0Y-9360000D03*
D16*
X0Y-10660000D03*
%TD*%
D23*
%TO.C,JP101*%
X6040000Y-8050000D03*
D24*
X6040000Y-9350000D03*
%TD*%
M02*
