%TF.GenerationSoftware,KiCad,Pcbnew,7.0.9*%
%TF.CreationDate,2024-01-18T20:35:56-05:00*%
%TF.ProjectId,mt6835-nema17,6d743638-3335-42d6-9e65-6d6131372e6b,rev?*%
%TF.SameCoordinates,PX85e0760PY599de50*%
%TF.FileFunction,Copper,L1,Top*%
%TF.FilePolarity,Positive*%
%FSLAX46Y46*%
G04 Gerber Fmt 4.6, Leading zero omitted, Abs format (unit mm)*
G04 Created by KiCad (PCBNEW 7.0.9) date 2024-01-18 20:35:56*
%MOMM*%
%LPD*%
G01*
G04 APERTURE LIST*
G04 Aperture macros list*
%AMRoundRect*
0 Rectangle with rounded corners*
0 $1 Rounding radius*
0 $2 $3 $4 $5 $6 $7 $8 $9 X,Y pos of 4 corners*
0 Add a 4 corners polygon primitive as box body*
4,1,4,$2,$3,$4,$5,$6,$7,$8,$9,$2,$3,0*
0 Add four circle primitives for the rounded corners*
1,1,$1+$1,$2,$3*
1,1,$1+$1,$4,$5*
1,1,$1+$1,$6,$7*
1,1,$1+$1,$8,$9*
0 Add four rect primitives between the rounded corners*
20,1,$1+$1,$2,$3,$4,$5,0*
20,1,$1+$1,$4,$5,$6,$7,0*
20,1,$1+$1,$6,$7,$8,$9,0*
20,1,$1+$1,$8,$9,$2,$3,0*%
%AMFreePoly0*
4,1,19,0.500000,-0.750000,0.000000,-0.750000,0.000000,-0.744911,-0.071157,-0.744911,-0.207708,-0.704816,-0.327430,-0.627875,-0.420627,-0.520320,-0.479746,-0.390866,-0.500000,-0.250000,-0.500000,0.250000,-0.479746,0.390866,-0.420627,0.520320,-0.327430,0.627875,-0.207708,0.704816,-0.071157,0.744911,0.000000,0.744911,0.000000,0.750000,0.500000,0.750000,0.500000,-0.750000,0.500000,-0.750000,
$1*%
%AMFreePoly1*
4,1,19,0.000000,0.744911,0.071157,0.744911,0.207708,0.704816,0.327430,0.627875,0.420627,0.520320,0.479746,0.390866,0.500000,0.250000,0.500000,-0.250000,0.479746,-0.390866,0.420627,-0.520320,0.327430,-0.627875,0.207708,-0.704816,0.071157,-0.744911,0.000000,-0.744911,0.000000,-0.750000,-0.500000,-0.750000,-0.500000,0.750000,0.000000,0.750000,0.000000,0.744911,0.000000,0.744911,
$1*%
%AMFreePoly2*
4,1,19,0.550000,-0.750000,0.000000,-0.750000,0.000000,-0.744911,-0.071157,-0.744911,-0.207708,-0.704816,-0.327430,-0.627875,-0.420627,-0.520320,-0.479746,-0.390866,-0.500000,-0.250000,-0.500000,0.250000,-0.479746,0.390866,-0.420627,0.520320,-0.327430,0.627875,-0.207708,0.704816,-0.071157,0.744911,0.000000,0.744911,0.000000,0.750000,0.550000,0.750000,0.550000,-0.750000,0.550000,-0.750000,
$1*%
%AMFreePoly3*
4,1,19,0.000000,0.744911,0.071157,0.744911,0.207708,0.704816,0.327430,0.627875,0.420627,0.520320,0.479746,0.390866,0.500000,0.250000,0.500000,-0.250000,0.479746,-0.390866,0.420627,-0.520320,0.327430,-0.627875,0.207708,-0.704816,0.071157,-0.744911,0.000000,-0.744911,0.000000,-0.750000,-0.550000,-0.750000,-0.550000,0.750000,0.000000,0.750000,0.000000,0.744911,0.000000,0.744911,
$1*%
G04 Aperture macros list end*
%TA.AperFunction,SMDPad,CuDef*%
%ADD10RoundRect,0.135000X0.185000X-0.135000X0.185000X0.135000X-0.185000X0.135000X-0.185000X-0.135000X0*%
%TD*%
%TA.AperFunction,SMDPad,CuDef*%
%ADD11FreePoly0,90.000000*%
%TD*%
%TA.AperFunction,SMDPad,CuDef*%
%ADD12FreePoly1,90.000000*%
%TD*%
%TA.AperFunction,SMDPad,CuDef*%
%ADD13FreePoly2,270.000000*%
%TD*%
%TA.AperFunction,SMDPad,CuDef*%
%ADD14R,1.500000X1.000000*%
%TD*%
%TA.AperFunction,SMDPad,CuDef*%
%ADD15FreePoly3,270.000000*%
%TD*%
%TA.AperFunction,SMDPad,CuDef*%
%ADD16RoundRect,0.140000X0.170000X-0.140000X0.170000X0.140000X-0.170000X0.140000X-0.170000X-0.140000X0*%
%TD*%
%TA.AperFunction,SMDPad,CuDef*%
%ADD17R,1.050000X0.450000*%
%TD*%
%TA.AperFunction,SMDPad,CuDef*%
%ADD18R,1.600000X0.400000*%
%TD*%
%TA.AperFunction,SMDPad,CuDef*%
%ADD19R,1.800000X1.200000*%
%TD*%
%TA.AperFunction,ComponentPad*%
%ADD20C,5.800000*%
%TD*%
%TA.AperFunction,SMDPad,CuDef*%
%ADD21RoundRect,0.140000X-0.140000X-0.170000X0.140000X-0.170000X0.140000X0.170000X-0.140000X0.170000X0*%
%TD*%
%TA.AperFunction,SMDPad,CuDef*%
%ADD22FreePoly0,270.000000*%
%TD*%
%TA.AperFunction,SMDPad,CuDef*%
%ADD23FreePoly1,270.000000*%
%TD*%
%TA.AperFunction,ViaPad*%
%ADD24C,0.800000*%
%TD*%
%TA.AperFunction,ViaPad*%
%ADD25C,0.500000*%
%TD*%
%TA.AperFunction,Conductor*%
%ADD26C,0.150000*%
%TD*%
%TA.AperFunction,Conductor*%
%ADD27C,0.250000*%
%TD*%
G04 APERTURE END LIST*
%TA.AperFunction,EtchedComponent*%
%TO.C,JP102*%
G36*
X3430000Y-8960000D02*
G01*
X2830000Y-8960000D01*
X2830000Y-8460000D01*
X3430000Y-8460000D01*
X3430000Y-8960000D01*
G37*
%TD.AperFunction*%
%TA.AperFunction,EtchedComponent*%
%TO.C,JP104*%
G36*
X-2720000Y-8980000D02*
G01*
X-3320000Y-8980000D01*
X-3320000Y-8480000D01*
X-2720000Y-8480000D01*
X-2720000Y-8980000D01*
G37*
%TD.AperFunction*%
%TA.AperFunction,EtchedComponent*%
%TO.C,JP103*%
G36*
X300000Y-8960000D02*
G01*
X-300000Y-8960000D01*
X-300000Y-8460000D01*
X300000Y-8460000D01*
X300000Y-8960000D01*
G37*
%TD.AperFunction*%
%TD*%
D10*
%TO.P,R101,2*%
%TO.N,GND*%
X-4170000Y1350000D03*
%TO.P,R101,1*%
%TO.N,Net-(JP105-B)*%
X-4170000Y330000D03*
%TD*%
D11*
%TO.P,JP105,1,A*%
%TO.N,/ENC_1*%
X-6430000Y-9340000D03*
D12*
%TO.P,JP105,2,B*%
%TO.N,Net-(JP105-B)*%
X-6430000Y-8040000D03*
%TD*%
D13*
%TO.P,JP102,1,A*%
%TO.N,/Z*%
X3130000Y-8060000D03*
D14*
%TO.P,JP102,2,C*%
%TO.N,/ENC_3*%
X3130000Y-9360000D03*
D15*
%TO.P,JP102,3,B*%
%TO.N,/W*%
X3130000Y-10660000D03*
%TD*%
D16*
%TO.P,C101,1*%
%TO.N,+3V3*%
X-14370000Y4050000D03*
%TO.P,C101,2*%
%TO.N,GND*%
X-14370000Y5010000D03*
%TD*%
D17*
%TO.P,U101,1,U*%
%TO.N,/U*%
X-2775000Y2275000D03*
%TO.P,U101,2,V*%
%TO.N,/V*%
X-2775000Y1625000D03*
%TO.P,U101,3,W*%
%TO.N,/W*%
X-2775000Y975000D03*
%TO.P,U101,4,CAL_EN*%
%TO.N,Net-(JP105-B)*%
X-2775000Y325000D03*
%TO.P,U101,5,MISO*%
%TO.N,/CIPO*%
X-2775000Y-325000D03*
%TO.P,U101,6,MOSI*%
%TO.N,/COPI*%
X-2775000Y-975000D03*
%TO.P,U101,7,SCK*%
%TO.N,/SCK*%
X-2775000Y-1625000D03*
%TO.P,U101,8,CSN*%
%TO.N,/~{CS}*%
X-2775000Y-2275000D03*
%TO.P,U101,9,VDD*%
%TO.N,+3V3*%
X2775000Y-2275000D03*
%TO.P,U101,10,PWM_OUT*%
%TO.N,/PWM*%
X2775000Y-1625000D03*
%TO.P,U101,11,TEST*%
%TO.N,GND*%
X2775000Y-975000D03*
%TO.P,U101,12,VSS*%
X2775000Y-325000D03*
%TO.P,U101,13,TEST_EN*%
X2775000Y325000D03*
%TO.P,U101,14,Z*%
%TO.N,/Z*%
X2775000Y975000D03*
%TO.P,U101,15,B*%
%TO.N,/B*%
X2775000Y1625000D03*
%TO.P,U101,16,A*%
%TO.N,/A*%
X2775000Y2275000D03*
%TD*%
D18*
%TO.P,J101,1,Pin_1*%
%TO.N,+3V3*%
X-15972500Y3990000D03*
%TO.P,J101,2,Pin_2*%
%TO.N,/CIPO*%
X-15972500Y2990000D03*
%TO.P,J101,3,Pin_3*%
%TO.N,/COPI*%
X-15972500Y1990000D03*
%TO.P,J101,4,Pin_4*%
%TO.N,/SCK*%
X-15972500Y990000D03*
%TO.P,J101,5,Pin_5*%
%TO.N,/~{CS}*%
X-15972500Y-10000D03*
%TO.P,J101,6,Pin_6*%
%TO.N,/ENC_1*%
X-15972500Y-1010000D03*
%TO.P,J101,7,Pin_7*%
%TO.N,/ENC_2*%
X-15972500Y-2010000D03*
%TO.P,J101,8,Pin_8*%
%TO.N,/ENC_3*%
X-15972500Y-3010000D03*
%TO.P,J101,9,Pin_9*%
%TO.N,GND*%
X-15972500Y-4010000D03*
D19*
%TO.P,J101,10*%
%TO.N,N/C*%
X-19552500Y-5110000D03*
%TO.P,J101,11*%
X-19552500Y5090000D03*
%TD*%
D13*
%TO.P,JP104,1,A*%
%TO.N,/A*%
X-3020000Y-8080000D03*
D14*
%TO.P,JP104,2,C*%
%TO.N,/ENC_1*%
X-3020000Y-9380000D03*
D15*
%TO.P,JP104,3,B*%
%TO.N,/U*%
X-3020000Y-10680000D03*
%TD*%
D20*
%TO.P,H101,1,1*%
%TO.N,GND*%
X-15500000Y15500000D03*
X-15500000Y-15500000D03*
X15500000Y15500000D03*
X15500000Y-15500000D03*
%TD*%
D21*
%TO.P,C103,1*%
%TO.N,+3V3*%
X4070000Y-1340000D03*
%TO.P,C103,2*%
%TO.N,GND*%
X5030000Y-1340000D03*
%TD*%
%TO.P,C102,1*%
%TO.N,+3V3*%
X4080000Y-2350000D03*
%TO.P,C102,2*%
%TO.N,GND*%
X5040000Y-2350000D03*
%TD*%
D13*
%TO.P,JP103,1,A*%
%TO.N,/B*%
X0Y-8060000D03*
D14*
%TO.P,JP103,2,C*%
%TO.N,/ENC_2*%
X0Y-9360000D03*
D15*
%TO.P,JP103,3,B*%
%TO.N,/V*%
X0Y-10660000D03*
%TD*%
D22*
%TO.P,JP101,1,A*%
%TO.N,/PWM*%
X6040000Y-8050000D03*
D23*
%TO.P,JP101,2,B*%
%TO.N,/ENC_3*%
X6040000Y-9350000D03*
%TD*%
D24*
%TO.N,GND*%
X-4180000Y2210000D03*
X5020000Y-30000D03*
X6350000Y-1830000D03*
X1540000Y-290000D03*
X-11650000Y1420000D03*
X-410000Y2570000D03*
X5040000Y-3450000D03*
D25*
%TO.N,/ENC_1*%
X-1630000Y-9350000D03*
X-8160000Y-7770000D03*
%TO.N,/ENC_2*%
X-9070000Y-7770000D03*
X1270000Y-9360000D03*
%TD*%
D26*
%TO.N,/ENC_1*%
X-8160000Y-7770000D02*
X-8160000Y-8450000D01*
X-6627488Y-9340000D02*
X-6430000Y-9340000D01*
X-8160000Y-8450000D02*
X-7350000Y-9260000D01*
X-7350000Y-9260000D02*
X-6707488Y-9260000D01*
X-6707488Y-9260000D02*
X-6627488Y-9340000D01*
%TO.N,/ENC_2*%
X-14830000Y-2010000D02*
X-15972500Y-2010000D01*
X-9070000Y-7770000D02*
X-14830000Y-2010000D01*
%TO.N,Net-(JP105-B)*%
X-2775000Y325000D02*
X-4165000Y325000D01*
X-4165000Y325000D02*
X-4170000Y330000D01*
D27*
%TO.N,GND*%
X-4170000Y1350000D02*
X-4170000Y2200000D01*
X-4170000Y2200000D02*
X-4180000Y2210000D01*
D26*
%TO.N,/ENC_1*%
X-14850000Y-1010000D02*
X-8160000Y-7700000D01*
X-8160000Y-7770000D02*
X-8160000Y-7700000D01*
%TO.N,Net-(JP105-B)*%
X-2775000Y325000D02*
X-2150000Y325000D01*
X-2150000Y325000D02*
X-1910000Y85000D01*
X-1910000Y-2995686D02*
X-6430000Y-7515686D01*
X-1910000Y85000D02*
X-1910000Y-2995686D01*
X-6430000Y-7515686D02*
X-6430000Y-8040000D01*
%TO.N,/ENC_3*%
X6040000Y-9350000D02*
X3060000Y-12330000D01*
X3060000Y-12330000D02*
X-6352500Y-12330000D01*
X-6352500Y-12330000D02*
X-15672500Y-3010000D01*
X-15672500Y-3010000D02*
X-15972500Y-3010000D01*
D27*
%TO.N,+3V3*%
X-14370000Y4050000D02*
X3010000Y4050000D01*
X4070000Y2990000D02*
X4070000Y-1340000D01*
X4080000Y-1350000D02*
X4070000Y-1340000D01*
X-15972500Y3990000D02*
X-14430000Y3990000D01*
X-14430000Y3990000D02*
X-14370000Y4050000D01*
X2775000Y-2275000D02*
X4005000Y-2275000D01*
X4005000Y-2275000D02*
X4080000Y-2350000D01*
X3010000Y4050000D02*
X4070000Y2990000D01*
X4080000Y-2350000D02*
X4080000Y-1350000D01*
%TO.N,GND*%
X2775000Y-325000D02*
X1575000Y-325000D01*
X1575000Y-325000D02*
X1540000Y-290000D01*
D26*
%TO.N,/CIPO*%
X-14990000Y2990000D02*
X-15972500Y2990000D01*
X-11675000Y-325000D02*
X-14990000Y2990000D01*
X-2775000Y-325000D02*
X-11675000Y-325000D01*
%TO.N,/COPI*%
X-12035000Y-975000D02*
X-15000000Y1990000D01*
X-15000000Y1990000D02*
X-15972500Y1990000D01*
X-2775000Y-975000D02*
X-12035000Y-975000D01*
%TO.N,/SCK*%
X-2775000Y-1625000D02*
X-12275000Y-1625000D01*
X-14890000Y990000D02*
X-15972500Y990000D01*
X-12275000Y-1625000D02*
X-14890000Y990000D01*
%TO.N,/~{CS}*%
X-14900000Y-10000D02*
X-15972500Y-10000D01*
X-12635000Y-2275000D02*
X-14900000Y-10000D01*
X-2775000Y-2275000D02*
X-12635000Y-2275000D01*
%TO.N,/ENC_1*%
X-3020000Y-9380000D02*
X-1660000Y-9380000D01*
X-1660000Y-9380000D02*
X-1630000Y-9350000D01*
X-14850000Y-1010000D02*
X-15972500Y-1010000D01*
%TO.N,/ENC_2*%
X0Y-9360000D02*
X1270000Y-9360000D01*
%TO.N,/ENC_3*%
X6030000Y-9360000D02*
X6040000Y-9350000D01*
X3130000Y-9360000D02*
X6030000Y-9360000D01*
%TO.N,/PWM*%
X2150000Y-1625000D02*
X1730000Y-2045000D01*
X1730000Y-3740000D02*
X6040000Y-8050000D01*
X1730000Y-2045000D02*
X1730000Y-3740000D01*
X2775000Y-1625000D02*
X2150000Y-1625000D01*
%TO.N,/Z*%
X750000Y520000D02*
X1205000Y975000D01*
X1205000Y975000D02*
X2775000Y975000D01*
X3130000Y-8060000D02*
X750000Y-5680000D01*
X750000Y-5680000D02*
X750000Y520000D01*
%TO.N,/W*%
X-1590000Y580000D02*
X-1590000Y-3500000D01*
X-2775000Y975000D02*
X-1985000Y975000D01*
X-1590000Y-3500000D02*
X-5040000Y-6950000D01*
X1820000Y-11970000D02*
X3130000Y-10660000D01*
X-5040000Y-6950000D02*
X-5040000Y-10810000D01*
X-1985000Y975000D02*
X-1590000Y580000D01*
X-5040000Y-10810000D02*
X-3880000Y-11970000D01*
X-3880000Y-11970000D02*
X1820000Y-11970000D01*
%TO.N,/B*%
X270000Y880000D02*
X1015000Y1625000D01*
X1015000Y1625000D02*
X2775000Y1625000D01*
X0Y-8060000D02*
X270000Y-7790000D01*
X270000Y-7790000D02*
X270000Y880000D01*
%TO.N,/V*%
X-1060000Y-3780000D02*
X-1060000Y920000D01*
X-1765000Y1625000D02*
X-2775000Y1625000D01*
X-960000Y-11620000D02*
X-3570000Y-11620000D01*
X-4560000Y-10630000D02*
X-4560000Y-7280000D01*
X-4560000Y-7280000D02*
X-1060000Y-3780000D01*
X-3570000Y-11620000D02*
X-4560000Y-10630000D01*
X-1060000Y920000D02*
X-1765000Y1625000D01*
X0Y-10660000D02*
X-960000Y-11620000D01*
%TO.N,/A*%
X-200000Y1160000D02*
X915000Y2275000D01*
X915000Y2275000D02*
X2775000Y2275000D01*
X-200000Y-5260000D02*
X-200000Y1160000D01*
X-3020000Y-8080000D02*
X-200000Y-5260000D01*
%TO.N,/U*%
X-3020000Y-10680000D02*
X-3770000Y-10680000D01*
X-1745000Y2275000D02*
X-2775000Y2275000D01*
X-570000Y1100000D02*
X-1745000Y2275000D01*
X-4120000Y-7630000D02*
X-570000Y-4080000D01*
X-3770000Y-10680000D02*
X-4120000Y-10330000D01*
X-4120000Y-10330000D02*
X-4120000Y-7630000D01*
X-570000Y-4080000D02*
X-570000Y1100000D01*
%TD*%
%TA.AperFunction,Conductor*%
%TO.N,GND*%
G36*
X1908808Y379815D02*
G01*
X1916079Y374767D01*
X1984875Y323267D01*
X2026747Y267334D01*
X2031731Y197642D01*
X1998246Y136319D01*
X1936923Y102834D01*
X1910565Y100000D01*
X1750000Y100000D01*
X1750000Y52165D01*
X1754183Y13252D01*
X1754183Y-13252D01*
X1750000Y-52164D01*
X1750000Y-100000D01*
X2550000Y-100000D01*
X2550000Y125501D01*
X2569685Y192540D01*
X2622489Y238295D01*
X2673997Y249501D01*
X2876001Y249501D01*
X2943039Y229816D01*
X2988794Y177012D01*
X3000000Y125501D01*
X3000000Y-775500D01*
X2980315Y-842539D01*
X2927511Y-888294D01*
X2876000Y-899500D01*
X2674000Y-899500D01*
X2606961Y-879815D01*
X2561206Y-827011D01*
X2550000Y-775500D01*
X2550000Y-550000D01*
X1750000Y-550000D01*
X1750000Y-597835D01*
X1754183Y-636748D01*
X1754183Y-663252D01*
X1750000Y-702164D01*
X1750000Y-750000D01*
X1910565Y-750000D01*
X1977604Y-769685D01*
X2023359Y-822489D01*
X2033303Y-891647D01*
X2004278Y-955203D01*
X1984876Y-973266D01*
X1892456Y-1042452D01*
X1892455Y-1042453D01*
X1892454Y-1042454D01*
X1811711Y-1150312D01*
X1763888Y-1186111D01*
X1732887Y-1217112D01*
X1730315Y-1225874D01*
X1724368Y-1234331D01*
X1718859Y-1241510D01*
X1713510Y-1247609D01*
X1537181Y-1423938D01*
X1475858Y-1457423D01*
X1406167Y-1452439D01*
X1350233Y-1410568D01*
X1325816Y-1345103D01*
X1325500Y-1336257D01*
X1325500Y230258D01*
X1345185Y297297D01*
X1361819Y317939D01*
X1407061Y363181D01*
X1468384Y396666D01*
X1494742Y399500D01*
X1841769Y399500D01*
X1908808Y379815D01*
G37*
%TD.AperFunction*%
%TA.AperFunction,Conductor*%
G36*
X2766587Y3404815D02*
G01*
X2787229Y3388181D01*
X2963228Y3212181D01*
X2996713Y3150858D01*
X2991729Y3081166D01*
X2949857Y3025233D01*
X2884393Y3000816D01*
X2875547Y3000500D01*
X2202129Y3000500D01*
X2202123Y3000499D01*
X2142516Y2994092D01*
X2007671Y2943798D01*
X2007668Y2943796D01*
X1916080Y2875233D01*
X1850615Y2850816D01*
X1841769Y2850500D01*
X956781Y2850500D01*
X948682Y2851031D01*
X928265Y2853719D01*
X915001Y2855465D01*
X915000Y2855465D01*
X910144Y2854826D01*
X881419Y2851045D01*
X881406Y2851043D01*
X877281Y2850500D01*
X877280Y2850500D01*
X764764Y2835687D01*
X764763Y2835687D01*
X624766Y2777699D01*
X535845Y2709467D01*
X535824Y2709451D01*
X504548Y2685450D01*
X483861Y2658493D01*
X478510Y2652392D01*
X-327320Y1846562D01*
X-388643Y1813077D01*
X-458335Y1818061D01*
X-502682Y1846562D01*
X-1308511Y2652391D01*
X-1313864Y2658494D01*
X-1332298Y2682517D01*
X-1334549Y2685451D01*
X-1334551Y2685453D01*
X-1334552Y2685454D01*
X-1363037Y2707311D01*
X-1363048Y2707320D01*
X-1454768Y2777699D01*
X-1536776Y2811668D01*
X-1594764Y2835687D01*
X-1648094Y2842709D01*
X-1710902Y2850977D01*
X-1710917Y2850979D01*
X-1737804Y2854518D01*
X-1745000Y2855465D01*
X-1745001Y2855465D01*
X-1745002Y2855465D01*
X-1764035Y2852960D01*
X-1778683Y2851031D01*
X-1786781Y2850500D01*
X-1841769Y2850500D01*
X-1908808Y2870185D01*
X-1916080Y2875233D01*
X-2007669Y2943796D01*
X-2007672Y2943798D01*
X-2142518Y2994092D01*
X-2142517Y2994092D01*
X-2202117Y3000499D01*
X-2202119Y3000500D01*
X-2202127Y3000500D01*
X-2202136Y3000500D01*
X-3347871Y3000500D01*
X-3347877Y3000499D01*
X-3407484Y2994092D01*
X-3542329Y2943798D01*
X-3542336Y2943794D01*
X-3657545Y2857548D01*
X-3657548Y2857545D01*
X-3743794Y2742336D01*
X-3743798Y2742329D01*
X-3794092Y2607483D01*
X-3800499Y2547884D01*
X-3800500Y2547865D01*
X-3800500Y2244670D01*
X-3820185Y2177631D01*
X-3872989Y2131876D01*
X-3915137Y2124427D01*
X-3920000Y2119932D01*
X-3920000Y1224500D01*
X-3939685Y1157461D01*
X-3992489Y1111706D01*
X-4044000Y1100500D01*
X-4419180Y1100499D01*
X-4423097Y1100191D01*
X-4427959Y1100000D01*
X-4982844Y1100000D01*
X-4942406Y960807D01*
X-4908581Y903612D01*
X-4891399Y835888D01*
X-4908581Y777372D01*
X-4942870Y719393D01*
X-4942871Y719389D01*
X-4987665Y565209D01*
X-4987666Y565203D01*
X-4989699Y539359D01*
X-4990500Y529181D01*
X-4990500Y392454D01*
X-4990499Y374501D01*
X-5010183Y307461D01*
X-5062987Y261706D01*
X-5114499Y250500D01*
X-11385258Y250500D01*
X-11452297Y270185D01*
X-11472939Y286819D01*
X-12786120Y1600000D01*
X-4982844Y1600000D01*
X-4420000Y1600000D01*
X-4420000Y2119932D01*
X-4420001Y2119932D01*
X-4455131Y2117166D01*
X-4455132Y2117166D01*
X-4609189Y2072408D01*
X-4609192Y2072407D01*
X-4747286Y1990739D01*
X-4747295Y1990732D01*
X-4860732Y1877295D01*
X-4860739Y1877286D01*
X-4942405Y1739195D01*
X-4982844Y1600000D01*
X-12786120Y1600000D01*
X-14243939Y3057819D01*
X-14277424Y3119142D01*
X-14272440Y3188834D01*
X-14230568Y3244767D01*
X-14165104Y3269184D01*
X-14156258Y3269500D01*
X-14135308Y3269500D01*
X-14117159Y3270929D01*
X-14099007Y3272357D01*
X-14099005Y3272358D01*
X-14099003Y3272358D01*
X-14058025Y3284264D01*
X-13943605Y3317506D01*
X-13804313Y3399883D01*
X-13804314Y3399883D01*
X-13797598Y3403854D01*
X-13796625Y3402209D01*
X-13741085Y3424014D01*
X-13730122Y3424500D01*
X2699548Y3424500D01*
X2766587Y3404815D01*
G37*
%TD.AperFunction*%
%TA.AperFunction,Conductor*%
G36*
X15717445Y20990507D02*
G01*
X15958385Y20979987D01*
X15963320Y20979573D01*
X16193261Y20950911D01*
X16421921Y20920807D01*
X16426490Y20920028D01*
X16655391Y20872032D01*
X16793210Y20841478D01*
X16878677Y20822530D01*
X16882939Y20821425D01*
X17107969Y20754431D01*
X17325459Y20685856D01*
X17329305Y20684502D01*
X17548675Y20598903D01*
X17758977Y20511792D01*
X17762437Y20510232D01*
X17974350Y20406635D01*
X18176129Y20301595D01*
X18179238Y20299861D01*
X18285211Y20236716D01*
X18382116Y20178973D01*
X18573954Y20056758D01*
X18576669Y20054926D01*
X18769063Y19917560D01*
X18949600Y19779029D01*
X18951872Y19777195D01*
X19132397Y19624299D01*
X19132415Y19624284D01*
X19301239Y19469584D01*
X19469583Y19301240D01*
X19624281Y19132418D01*
X19777186Y18951883D01*
X19779044Y18949579D01*
X19817088Y18900000D01*
X19908489Y18780883D01*
X19917559Y18769063D01*
X19961743Y18707180D01*
X20054924Y18576671D01*
X20056755Y18573957D01*
X20178973Y18382116D01*
X20299859Y18179240D01*
X20301593Y18176132D01*
X20406638Y17974343D01*
X20510220Y17762461D01*
X20511800Y17758957D01*
X20598915Y17548643D01*
X20684487Y17329341D01*
X20685859Y17325447D01*
X20754426Y17107983D01*
X20821420Y16882951D01*
X20822528Y16878679D01*
X20872038Y16655360D01*
X20920022Y16426512D01*
X20920811Y16421880D01*
X20950917Y16193205D01*
X20979569Y15963338D01*
X20979986Y15958371D01*
X20990505Y15717455D01*
X20999500Y15499999D01*
X20999500Y-15499999D01*
X20990505Y-15717454D01*
X20979986Y-15958369D01*
X20979569Y-15963336D01*
X20950917Y-16193204D01*
X20920811Y-16421878D01*
X20920022Y-16426510D01*
X20872038Y-16655359D01*
X20822528Y-16878677D01*
X20821420Y-16882949D01*
X20754426Y-17107982D01*
X20685859Y-17325445D01*
X20684487Y-17329339D01*
X20598915Y-17548642D01*
X20511800Y-17758955D01*
X20510220Y-17762459D01*
X20406638Y-17974342D01*
X20301592Y-18176130D01*
X20299859Y-18179238D01*
X20178973Y-18382115D01*
X20056755Y-18573955D01*
X20054924Y-18576668D01*
X19917565Y-18769055D01*
X19779044Y-18949577D01*
X19777168Y-18951904D01*
X19624283Y-19132414D01*
X19469583Y-19301239D01*
X19301239Y-19469583D01*
X19132414Y-19624283D01*
X18951904Y-19777168D01*
X18949577Y-19779044D01*
X18769055Y-19917565D01*
X18576668Y-20054924D01*
X18573955Y-20056755D01*
X18382115Y-20178973D01*
X18179238Y-20299859D01*
X18176130Y-20301592D01*
X17974342Y-20406638D01*
X17762459Y-20510220D01*
X17758955Y-20511800D01*
X17548642Y-20598915D01*
X17329339Y-20684487D01*
X17325445Y-20685859D01*
X17107982Y-20754426D01*
X16882949Y-20821420D01*
X16878677Y-20822528D01*
X16655359Y-20872038D01*
X16426510Y-20920022D01*
X16421878Y-20920811D01*
X16193204Y-20950917D01*
X15963336Y-20979569D01*
X15958369Y-20979986D01*
X15717454Y-20990505D01*
X15499999Y-20999500D01*
X-15499999Y-20999500D01*
X-15717455Y-20990505D01*
X-15958371Y-20979986D01*
X-15963338Y-20979569D01*
X-16193142Y-20950925D01*
X-16421896Y-20920807D01*
X-16426528Y-20920018D01*
X-16655313Y-20872048D01*
X-16878672Y-20822530D01*
X-16882945Y-20821422D01*
X-17107983Y-20754426D01*
X-17325447Y-20685859D01*
X-17329341Y-20684487D01*
X-17548643Y-20598915D01*
X-17758957Y-20511800D01*
X-17762461Y-20510220D01*
X-17974331Y-20406643D01*
X-18046352Y-20369151D01*
X-18176187Y-20301564D01*
X-18179243Y-20299859D01*
X-18301807Y-20226826D01*
X-18382099Y-20178982D01*
X-18573977Y-20056742D01*
X-18576692Y-20054910D01*
X-18681047Y-19980402D01*
X-18769056Y-19917564D01*
X-18845514Y-19858897D01*
X-18949579Y-19779044D01*
X-18951883Y-19777186D01*
X-19132418Y-19624281D01*
X-19301240Y-19469583D01*
X-19469584Y-19301239D01*
X-19624284Y-19132415D01*
X-19624285Y-19132414D01*
X-19777195Y-18951872D01*
X-19779029Y-18949600D01*
X-19917560Y-18769063D01*
X-20054927Y-18576668D01*
X-20056744Y-18573975D01*
X-20178983Y-18382098D01*
X-20196871Y-18352079D01*
X-20299878Y-18179212D01*
X-20301560Y-18176195D01*
X-20406644Y-17974330D01*
X-20434248Y-17917866D01*
X-20510238Y-17762426D01*
X-20511792Y-17758977D01*
X-20598903Y-17548675D01*
X-20684502Y-17329305D01*
X-20685856Y-17325459D01*
X-20754436Y-17107951D01*
X-20765486Y-17070834D01*
X-20821428Y-16882928D01*
X-20822532Y-16878670D01*
X-20872039Y-16655359D01*
X-20920023Y-16426510D01*
X-20920809Y-16421894D01*
X-20925400Y-16387024D01*
X-20950918Y-16193204D01*
X-20979573Y-15963320D01*
X-20979987Y-15958385D01*
X-20990509Y-15717381D01*
X-20999500Y-15500000D01*
X-20999500Y-15499999D01*
X-18904994Y-15499999D01*
X-18885034Y-15868142D01*
X-18885033Y-15868159D01*
X-18825390Y-16231960D01*
X-18825384Y-16231986D01*
X-18726757Y-16587209D01*
X-18726755Y-16587216D01*
X-18590294Y-16929710D01*
X-18590285Y-16929728D01*
X-18417594Y-17255458D01*
X-18210693Y-17560614D01*
X-18074504Y-17720948D01*
X-18074503Y-17720949D01*
X-16758649Y-16405095D01*
X-16704544Y-16483480D01*
X-16531184Y-16663966D01*
X-16405135Y-16758686D01*
X-17723480Y-18077031D01*
X-17723480Y-18077032D01*
X-17704357Y-18095147D01*
X-17704345Y-18095158D01*
X-17410842Y-18318274D01*
X-17410825Y-18318286D01*
X-17094933Y-18508350D01*
X-17094920Y-18508357D01*
X-16760329Y-18663155D01*
X-16410932Y-18780882D01*
X-16050866Y-18860138D01*
X-15684345Y-18899999D01*
X-15684337Y-18900000D01*
X-15315663Y-18900000D01*
X-15315656Y-18899999D01*
X-14949135Y-18860138D01*
X-14589069Y-18780882D01*
X-14239672Y-18663155D01*
X-13905081Y-18508357D01*
X-13905068Y-18508350D01*
X-13589176Y-18318286D01*
X-13589159Y-18318274D01*
X-13295660Y-18095161D01*
X-13276521Y-18077031D01*
X-14593121Y-16760431D01*
X-14565820Y-16743168D01*
X-14378499Y-16577216D01*
X-14239489Y-16406958D01*
X-12925499Y-17720948D01*
X-12925498Y-17720948D01*
X-12789310Y-17560615D01*
X-12789299Y-17560601D01*
X-12582407Y-17255458D01*
X-12409716Y-16929728D01*
X-12409707Y-16929710D01*
X-12273246Y-16587216D01*
X-12273244Y-16587209D01*
X-12174617Y-16231986D01*
X-12174611Y-16231960D01*
X-12114968Y-15868159D01*
X-12114967Y-15868142D01*
X-12095006Y-15499999D01*
X12095006Y-15499999D01*
X12114966Y-15868142D01*
X12114967Y-15868159D01*
X12174610Y-16231960D01*
X12174616Y-16231986D01*
X12273243Y-16587209D01*
X12273245Y-16587216D01*
X12409706Y-16929710D01*
X12409715Y-16929728D01*
X12582406Y-17255458D01*
X12789307Y-17560614D01*
X12925496Y-17720948D01*
X12925497Y-17720949D01*
X14241351Y-16405095D01*
X14295456Y-16483480D01*
X14468816Y-16663966D01*
X14594865Y-16758686D01*
X13276520Y-18077031D01*
X13276520Y-18077032D01*
X13295643Y-18095147D01*
X13295655Y-18095158D01*
X13589158Y-18318274D01*
X13589175Y-18318286D01*
X13905067Y-18508350D01*
X13905080Y-18508357D01*
X14239671Y-18663155D01*
X14589068Y-18780882D01*
X14949134Y-18860138D01*
X15315655Y-18899999D01*
X15315663Y-18900000D01*
X15684337Y-18900000D01*
X15684344Y-18899999D01*
X16050865Y-18860138D01*
X16410931Y-18780882D01*
X16760328Y-18663155D01*
X17094919Y-18508357D01*
X17094932Y-18508350D01*
X17410824Y-18318286D01*
X17410841Y-18318274D01*
X17704340Y-18095161D01*
X17723479Y-18077031D01*
X16406879Y-16760431D01*
X16434180Y-16743168D01*
X16621501Y-16577216D01*
X16760511Y-16406958D01*
X18074501Y-17720948D01*
X18074502Y-17720948D01*
X18210690Y-17560615D01*
X18210701Y-17560601D01*
X18417593Y-17255458D01*
X18590284Y-16929728D01*
X18590293Y-16929710D01*
X18726754Y-16587216D01*
X18726756Y-16587209D01*
X18825383Y-16231986D01*
X18825389Y-16231960D01*
X18885032Y-15868159D01*
X18885033Y-15868142D01*
X18904994Y-15499999D01*
X18904994Y-15499997D01*
X18885033Y-15131857D01*
X18885032Y-15131840D01*
X18825389Y-14768039D01*
X18825383Y-14768013D01*
X18726756Y-14412790D01*
X18726754Y-14412783D01*
X18590293Y-14070289D01*
X18590284Y-14070271D01*
X18417593Y-13744541D01*
X18210692Y-13439385D01*
X18074502Y-13279050D01*
X18074501Y-13279049D01*
X16758647Y-14594902D01*
X16704544Y-14516520D01*
X16531184Y-14336034D01*
X16405133Y-14241313D01*
X17723478Y-12922967D01*
X17723478Y-12922966D01*
X17704356Y-12904852D01*
X17704344Y-12904841D01*
X17410841Y-12681725D01*
X17410824Y-12681713D01*
X17094932Y-12491649D01*
X17094919Y-12491642D01*
X16760328Y-12336844D01*
X16410931Y-12219117D01*
X16050865Y-12139861D01*
X15684344Y-12100000D01*
X15315655Y-12100000D01*
X14949134Y-12139861D01*
X14589068Y-12219117D01*
X14239671Y-12336844D01*
X13905080Y-12491642D01*
X13905067Y-12491649D01*
X13589175Y-12681713D01*
X13589158Y-12681725D01*
X13295657Y-12904840D01*
X13295643Y-12904852D01*
X13276520Y-12922966D01*
X13276520Y-12922968D01*
X14593120Y-14239568D01*
X14565820Y-14256832D01*
X14378499Y-14422784D01*
X14239488Y-14593040D01*
X12925497Y-13279049D01*
X12925496Y-13279050D01*
X12789314Y-13439376D01*
X12789307Y-13439386D01*
X12582406Y-13744541D01*
X12409715Y-14070271D01*
X12409706Y-14070289D01*
X12273245Y-14412783D01*
X12273243Y-14412790D01*
X12174616Y-14768013D01*
X12174610Y-14768039D01*
X12114967Y-15131840D01*
X12114966Y-15131857D01*
X12095006Y-15499997D01*
X12095006Y-15499999D01*
X-12095006Y-15499999D01*
X-12095006Y-15499997D01*
X-12114967Y-15131857D01*
X-12114968Y-15131840D01*
X-12174611Y-14768039D01*
X-12174617Y-14768013D01*
X-12273244Y-14412790D01*
X-12273246Y-14412783D01*
X-12409707Y-14070289D01*
X-12409716Y-14070271D01*
X-12582407Y-13744541D01*
X-12789308Y-13439385D01*
X-12925498Y-13279050D01*
X-12925499Y-13279049D01*
X-14241353Y-14594902D01*
X-14295456Y-14516520D01*
X-14468816Y-14336034D01*
X-14594867Y-14241313D01*
X-13276522Y-12922967D01*
X-13276522Y-12922966D01*
X-13295644Y-12904852D01*
X-13295656Y-12904841D01*
X-13589159Y-12681725D01*
X-13589176Y-12681713D01*
X-13905068Y-12491649D01*
X-13905081Y-12491642D01*
X-14239672Y-12336844D01*
X-14589069Y-12219117D01*
X-14949135Y-12139861D01*
X-15315656Y-12100000D01*
X-15684345Y-12100000D01*
X-16050866Y-12139861D01*
X-16410932Y-12219117D01*
X-16760329Y-12336844D01*
X-17094920Y-12491642D01*
X-17094933Y-12491649D01*
X-17410825Y-12681713D01*
X-17410842Y-12681725D01*
X-17704343Y-12904840D01*
X-17704357Y-12904852D01*
X-17723480Y-12922966D01*
X-17723480Y-12922968D01*
X-16406880Y-14239568D01*
X-16434180Y-14256832D01*
X-16621501Y-14422784D01*
X-16760512Y-14593040D01*
X-18074503Y-13279049D01*
X-18074504Y-13279050D01*
X-18210686Y-13439376D01*
X-18210693Y-13439386D01*
X-18417594Y-13744541D01*
X-18590285Y-14070271D01*
X-18590294Y-14070289D01*
X-18726755Y-14412783D01*
X-18726757Y-14412790D01*
X-18825384Y-14768013D01*
X-18825390Y-14768039D01*
X-18885033Y-15131840D01*
X-18885034Y-15131857D01*
X-18904994Y-15499997D01*
X-18904994Y-15499999D01*
X-20999500Y-15499999D01*
X-20999500Y-6173442D01*
X-20979815Y-6106403D01*
X-20927011Y-6060648D01*
X-20857853Y-6050704D01*
X-20801192Y-6074174D01*
X-20694835Y-6153793D01*
X-20694832Y-6153795D01*
X-20694829Y-6153797D01*
X-20559983Y-6204091D01*
X-20559984Y-6204091D01*
X-20553056Y-6204835D01*
X-20500373Y-6210500D01*
X-18604628Y-6210499D01*
X-18545017Y-6204091D01*
X-18410169Y-6153796D01*
X-18294954Y-6067546D01*
X-18208704Y-5952331D01*
X-18158409Y-5817483D01*
X-18152000Y-5757873D01*
X-18152001Y-4462128D01*
X-18158409Y-4402517D01*
X-18183238Y-4335948D01*
X-18208703Y-4267671D01*
X-18208707Y-4267664D01*
X-18251875Y-4210000D01*
X-17272500Y-4210000D01*
X-17272500Y-4257844D01*
X-17266099Y-4317372D01*
X-17266097Y-4317379D01*
X-17215855Y-4452086D01*
X-17215851Y-4452093D01*
X-17129691Y-4567187D01*
X-17129688Y-4567190D01*
X-17014594Y-4653350D01*
X-17014587Y-4653354D01*
X-16879880Y-4703596D01*
X-16879873Y-4703598D01*
X-16820345Y-4709999D01*
X-16820328Y-4710000D01*
X-16172500Y-4710000D01*
X-16172500Y-4210000D01*
X-17272500Y-4210000D01*
X-18251875Y-4210000D01*
X-18294953Y-4152455D01*
X-18294956Y-4152452D01*
X-18410165Y-4066206D01*
X-18410172Y-4066202D01*
X-18545018Y-4015908D01*
X-18545017Y-4015908D01*
X-18604617Y-4009501D01*
X-18604619Y-4009500D01*
X-18604627Y-4009500D01*
X-18604636Y-4009500D01*
X-20500371Y-4009500D01*
X-20500377Y-4009501D01*
X-20559984Y-4015908D01*
X-20694829Y-4066202D01*
X-20694831Y-4066203D01*
X-20801189Y-4145824D01*
X-20866653Y-4170241D01*
X-20934926Y-4155390D01*
X-20984332Y-4105985D01*
X-20999500Y-4046557D01*
X-20999500Y-3257870D01*
X-17273000Y-3257870D01*
X-17272999Y-3257876D01*
X-17266592Y-3317483D01*
X-17213197Y-3460641D01*
X-17214767Y-3461226D01*
X-17202117Y-3519367D01*
X-17213813Y-3559206D01*
X-17212754Y-3559601D01*
X-17266097Y-3702620D01*
X-17266099Y-3702627D01*
X-17272500Y-3762155D01*
X-17272500Y-3810000D01*
X-15896500Y-3810000D01*
X-15829461Y-3829685D01*
X-15783706Y-3882489D01*
X-15772500Y-3934000D01*
X-15772500Y-4710000D01*
X-15124672Y-4710000D01*
X-15124656Y-4709999D01*
X-15065128Y-4703598D01*
X-15065117Y-4703595D01*
X-14941432Y-4657463D01*
X-14871741Y-4652478D01*
X-14810420Y-4685960D01*
X-6788980Y-12707400D01*
X-6783639Y-12713490D01*
X-6762951Y-12740451D01*
X-6762948Y-12740453D01*
X-6734014Y-12762656D01*
X-6734009Y-12762660D01*
X-6732768Y-12763612D01*
X-6642733Y-12832698D01*
X-6502736Y-12890687D01*
X-6390220Y-12905500D01*
X-6390219Y-12905500D01*
X-6388206Y-12905765D01*
X-6388187Y-12905766D01*
X-6352500Y-12910465D01*
X-6352499Y-12910465D01*
X-6339235Y-12908718D01*
X-6318818Y-12906030D01*
X-6310719Y-12905500D01*
X3018219Y-12905500D01*
X3026317Y-12906030D01*
X3046734Y-12908718D01*
X3059999Y-12910465D01*
X3060000Y-12910465D01*
X3095785Y-12905754D01*
X3095809Y-12905751D01*
X3097715Y-12905500D01*
X3097720Y-12905500D01*
X3210236Y-12890687D01*
X3350233Y-12832698D01*
X3448358Y-12757405D01*
X3448370Y-12757394D01*
X3470449Y-12740453D01*
X3470451Y-12740451D01*
X3491138Y-12713489D01*
X3496480Y-12707398D01*
X5811914Y-10391966D01*
X5873237Y-10358481D01*
X5899595Y-10355647D01*
X6305556Y-10355647D01*
X6305603Y-10355642D01*
X6361961Y-10355642D01*
X6361962Y-10355642D01*
X6476491Y-10339175D01*
X6495501Y-10336442D01*
X6504277Y-10335180D01*
X6504278Y-10335180D01*
X6642370Y-10294632D01*
X6664267Y-10284632D01*
X6773143Y-10234910D01*
X6773147Y-10234907D01*
X6773155Y-10234904D01*
X6894226Y-10157097D01*
X6894233Y-10157090D01*
X6894237Y-10157088D01*
X7002887Y-10062943D01*
X7011554Y-10052941D01*
X7097139Y-9954170D01*
X7174871Y-9833216D01*
X7234658Y-9702300D01*
X7275165Y-9564345D01*
X7295647Y-9421889D01*
X7295647Y-8850000D01*
X7290500Y-8778039D01*
X7279546Y-8740733D01*
X7275784Y-8688149D01*
X7277021Y-8679545D01*
X7295647Y-8550000D01*
X7295647Y-7978111D01*
X7275165Y-7835655D01*
X7234658Y-7697700D01*
X7174871Y-7566784D01*
X7103568Y-7455834D01*
X7097140Y-7445831D01*
X7097143Y-7445834D01*
X7002891Y-7337060D01*
X7002889Y-7337058D01*
X6894237Y-7242911D01*
X6894216Y-7242896D01*
X6773166Y-7165102D01*
X6773143Y-7165089D01*
X6641965Y-7105183D01*
X6640242Y-7104743D01*
X6504282Y-7064821D01*
X6504272Y-7064818D01*
X6376321Y-7046422D01*
X6361962Y-7044358D01*
X6361961Y-7044358D01*
X6305603Y-7044358D01*
X6305586Y-7044353D01*
X6254236Y-7044353D01*
X5899595Y-7044353D01*
X5832556Y-7024668D01*
X5811914Y-7008034D01*
X2341819Y-3537939D01*
X2308334Y-3476616D01*
X2305500Y-3450258D01*
X2305500Y-3124499D01*
X2325185Y-3057460D01*
X2377989Y-3011705D01*
X2429500Y-3000499D01*
X3347871Y-3000499D01*
X3347872Y-3000499D01*
X3407483Y-2994091D01*
X3407485Y-2994090D01*
X3407487Y-2994090D01*
X3415031Y-2992308D01*
X3415407Y-2993902D01*
X3475912Y-2989567D01*
X3537240Y-3023044D01*
X3537251Y-3023056D01*
X3544307Y-3030112D01*
X3544311Y-3030115D01*
X3544313Y-3030117D01*
X3683605Y-3112494D01*
X3724587Y-3124400D01*
X3839002Y-3157642D01*
X3839005Y-3157642D01*
X3839007Y-3157643D01*
X3851108Y-3158595D01*
X3875308Y-3160500D01*
X3875310Y-3160500D01*
X4284692Y-3160500D01*
X4302841Y-3159071D01*
X4320993Y-3157643D01*
X4320995Y-3157642D01*
X4320997Y-3157642D01*
X4374333Y-3142146D01*
X4476395Y-3112494D01*
X4497369Y-3100089D01*
X4565088Y-3082906D01*
X4623613Y-3100090D01*
X4643803Y-3112031D01*
X4790000Y-3154504D01*
X4790000Y-2848352D01*
X4807267Y-2785233D01*
X4812494Y-2776395D01*
X4816640Y-2762127D01*
X4857642Y-2620997D01*
X4857643Y-2620991D01*
X4859295Y-2600000D01*
X5290000Y-2600000D01*
X5290000Y-3154503D01*
X5436195Y-3112031D01*
X5575374Y-3029721D01*
X5575383Y-3029714D01*
X5689714Y-2915383D01*
X5689721Y-2915374D01*
X5772031Y-2776195D01*
X5772033Y-2776190D01*
X5817144Y-2620918D01*
X5817145Y-2620912D01*
X5818790Y-2600000D01*
X5290000Y-2600000D01*
X4859295Y-2600000D01*
X4860500Y-2584692D01*
X4860500Y-2115308D01*
X4857643Y-2079008D01*
X4857642Y-2079002D01*
X4812496Y-1923610D01*
X4812494Y-1923608D01*
X4812494Y-1923605D01*
X4798335Y-1899663D01*
X4781153Y-1831943D01*
X4798341Y-1773417D01*
X4802494Y-1766395D01*
X4847643Y-1610993D01*
X4849295Y-1590000D01*
X5290000Y-1590000D01*
X5290000Y-2100000D01*
X5818790Y-2100000D01*
X5817145Y-2079089D01*
X5772031Y-1923805D01*
X5757756Y-1899666D01*
X5740573Y-1831942D01*
X5757760Y-1773417D01*
X5762031Y-1766195D01*
X5807145Y-1610910D01*
X5808790Y-1590000D01*
X5290000Y-1590000D01*
X4849295Y-1590000D01*
X4850500Y-1574690D01*
X4850500Y-1105310D01*
X4849295Y-1090000D01*
X5280000Y-1090000D01*
X5808790Y-1090000D01*
X5807145Y-1069089D01*
X5762031Y-913804D01*
X5679721Y-774625D01*
X5679714Y-774616D01*
X5565383Y-660285D01*
X5565374Y-660278D01*
X5426193Y-577967D01*
X5426190Y-577965D01*
X5280001Y-535493D01*
X5280000Y-535494D01*
X5280000Y-1090000D01*
X4849295Y-1090000D01*
X4847643Y-1069007D01*
X4819827Y-973266D01*
X4802495Y-913608D01*
X4802492Y-913600D01*
X4797266Y-904763D01*
X4780000Y-841645D01*
X4780000Y-535494D01*
X4745047Y-509251D01*
X4703256Y-453257D01*
X4695500Y-410090D01*
X4695500Y2907263D01*
X4697224Y2922877D01*
X4696938Y2922904D01*
X4697672Y2930667D01*
X4695500Y2999798D01*
X4695500Y3029349D01*
X4695500Y3029350D01*
X4694629Y3036241D01*
X4694172Y3042055D01*
X4692709Y3088626D01*
X4692709Y3088628D01*
X4687120Y3107863D01*
X4683174Y3126916D01*
X4680664Y3146792D01*
X4663501Y3190141D01*
X4661614Y3195654D01*
X4656812Y3212181D01*
X4648617Y3240390D01*
X4648616Y3240392D01*
X4638421Y3257631D01*
X4629860Y3275107D01*
X4622486Y3293731D01*
X4622486Y3293733D01*
X4612474Y3307512D01*
X4595083Y3331450D01*
X4591900Y3336295D01*
X4568170Y3376421D01*
X4568165Y3376427D01*
X4554005Y3390587D01*
X4541370Y3405380D01*
X4529593Y3421588D01*
X4493693Y3451287D01*
X4489381Y3455210D01*
X3510803Y4433788D01*
X3500980Y4446050D01*
X3500759Y4445866D01*
X3495786Y4451877D01*
X3445364Y4499227D01*
X3434919Y4509672D01*
X3424475Y4520117D01*
X3418986Y4524375D01*
X3414561Y4528153D01*
X3380582Y4560062D01*
X3380580Y4560064D01*
X3380577Y4560065D01*
X3363029Y4569712D01*
X3346763Y4580396D01*
X3330933Y4592675D01*
X3288168Y4611182D01*
X3282922Y4613752D01*
X3242093Y4636197D01*
X3242092Y4636198D01*
X3222693Y4641178D01*
X3204281Y4647482D01*
X3185898Y4655438D01*
X3185892Y4655440D01*
X3139874Y4662728D01*
X3134152Y4663913D01*
X3089021Y4675500D01*
X3089019Y4675500D01*
X3068984Y4675500D01*
X3049586Y4677027D01*
X3042162Y4678203D01*
X3029805Y4680160D01*
X3029804Y4680160D01*
X2983416Y4675775D01*
X2977578Y4675500D01*
X-13440091Y4675500D01*
X-13507130Y4695185D01*
X-13539252Y4725047D01*
X-13565496Y4760000D01*
X-13871648Y4760000D01*
X-13934767Y4777268D01*
X-13943605Y4782494D01*
X-13943607Y4782495D01*
X-13943611Y4782497D01*
X-14099003Y4827643D01*
X-14099009Y4827644D01*
X-14135308Y4830500D01*
X-14135310Y4830500D01*
X-14604690Y4830500D01*
X-14604692Y4830500D01*
X-14640992Y4827644D01*
X-14640998Y4827643D01*
X-14796390Y4782497D01*
X-14796395Y4782494D01*
X-14805234Y4777268D01*
X-14868352Y4760000D01*
X-15174506Y4760000D01*
X-15189487Y4740047D01*
X-15245480Y4698256D01*
X-15288647Y4690500D01*
X-16820371Y4690500D01*
X-16820377Y4690499D01*
X-16879984Y4684092D01*
X-17014829Y4633798D01*
X-17014836Y4633794D01*
X-17130045Y4547548D01*
X-17130048Y4547545D01*
X-17216294Y4432336D01*
X-17216298Y4432329D01*
X-17266590Y4297487D01*
X-17266591Y4297483D01*
X-17273000Y4237873D01*
X-17273000Y4237866D01*
X-17273000Y4237865D01*
X-17273000Y3742130D01*
X-17272999Y3742124D01*
X-17266592Y3682517D01*
X-17213197Y3539359D01*
X-17214925Y3538715D01*
X-17202405Y3481147D01*
X-17214190Y3441012D01*
X-17213197Y3440641D01*
X-17259123Y3317505D01*
X-17266591Y3297483D01*
X-17273000Y3237873D01*
X-17273000Y3237866D01*
X-17273000Y3237865D01*
X-17273000Y2742130D01*
X-17272999Y2742124D01*
X-17266592Y2682517D01*
X-17213197Y2539359D01*
X-17214925Y2538715D01*
X-17202405Y2481147D01*
X-17214190Y2441012D01*
X-17213197Y2440641D01*
X-17216296Y2432331D01*
X-17266591Y2297483D01*
X-17273000Y2237873D01*
X-17273000Y2237866D01*
X-17273000Y2237865D01*
X-17273000Y1742130D01*
X-17272999Y1742124D01*
X-17266592Y1682517D01*
X-17213197Y1539359D01*
X-17214925Y1538715D01*
X-17202405Y1481147D01*
X-17214190Y1441012D01*
X-17213197Y1440641D01*
X-17216296Y1432331D01*
X-17266591Y1297483D01*
X-17273000Y1237873D01*
X-17273000Y1237866D01*
X-17273000Y1237865D01*
X-17273000Y742130D01*
X-17272999Y742124D01*
X-17266592Y682517D01*
X-17213197Y539359D01*
X-17214925Y538715D01*
X-17202405Y481147D01*
X-17214190Y441012D01*
X-17213197Y440641D01*
X-17263338Y306204D01*
X-17266591Y297483D01*
X-17273000Y237873D01*
X-17273000Y237866D01*
X-17273000Y237865D01*
X-17273000Y-257870D01*
X-17272999Y-257876D01*
X-17266592Y-317483D01*
X-17213197Y-460641D01*
X-17214925Y-461285D01*
X-17202405Y-518853D01*
X-17214190Y-558988D01*
X-17213197Y-559359D01*
X-17266459Y-702164D01*
X-17266591Y-702517D01*
X-17273000Y-762127D01*
X-17273000Y-762134D01*
X-17273000Y-762135D01*
X-17273000Y-1257870D01*
X-17272999Y-1257876D01*
X-17266592Y-1317483D01*
X-17213197Y-1460641D01*
X-17214925Y-1461285D01*
X-17202405Y-1518853D01*
X-17214190Y-1558988D01*
X-17213197Y-1559359D01*
X-17239537Y-1629982D01*
X-17266591Y-1702517D01*
X-17273000Y-1762127D01*
X-17273000Y-1762134D01*
X-17273000Y-1762135D01*
X-17273000Y-2257870D01*
X-17272999Y-2257876D01*
X-17266592Y-2317483D01*
X-17213197Y-2460641D01*
X-17214925Y-2461285D01*
X-17202405Y-2518853D01*
X-17214190Y-2558988D01*
X-17213197Y-2559359D01*
X-17236154Y-2620912D01*
X-17266591Y-2702517D01*
X-17273000Y-2762127D01*
X-17273000Y-2762134D01*
X-17273000Y-2762135D01*
X-17273000Y-3257870D01*
X-20999500Y-3257870D01*
X-20999500Y4026558D01*
X-20979815Y4093597D01*
X-20927011Y4139352D01*
X-20857853Y4149296D01*
X-20801192Y4125826D01*
X-20694835Y4046207D01*
X-20694832Y4046205D01*
X-20694829Y4046203D01*
X-20559983Y3995909D01*
X-20559984Y3995909D01*
X-20553056Y3995165D01*
X-20500373Y3989500D01*
X-18604628Y3989501D01*
X-18545017Y3995909D01*
X-18410169Y4046204D01*
X-18294954Y4132454D01*
X-18208704Y4247669D01*
X-18158409Y4382517D01*
X-18152000Y4442127D01*
X-18152001Y5260000D01*
X-15174504Y5260000D01*
X-14620000Y5260000D01*
X-14620000Y5788790D01*
X-14620001Y5788791D01*
X-14120000Y5788791D01*
X-14120000Y5260000D01*
X-13565496Y5260000D01*
X-13607969Y5406196D01*
X-13690279Y5545375D01*
X-13690286Y5545384D01*
X-13804617Y5659715D01*
X-13804626Y5659722D01*
X-13943805Y5742032D01*
X-13943810Y5742034D01*
X-14099082Y5787145D01*
X-14099088Y5787146D01*
X-14120000Y5788791D01*
X-14620001Y5788791D01*
X-14640913Y5787146D01*
X-14640919Y5787145D01*
X-14796191Y5742034D01*
X-14796196Y5742032D01*
X-14935375Y5659722D01*
X-14935384Y5659715D01*
X-15049715Y5545384D01*
X-15049722Y5545375D01*
X-15132032Y5406196D01*
X-15174504Y5260000D01*
X-18152001Y5260000D01*
X-18152001Y5737872D01*
X-18158409Y5797483D01*
X-18208704Y5932331D01*
X-18208705Y5932332D01*
X-18208707Y5932336D01*
X-18294953Y6047545D01*
X-18294956Y6047548D01*
X-18410165Y6133794D01*
X-18410172Y6133798D01*
X-18545018Y6184092D01*
X-18545017Y6184092D01*
X-18604617Y6190499D01*
X-18604619Y6190500D01*
X-18604627Y6190500D01*
X-18604636Y6190500D01*
X-20500371Y6190500D01*
X-20500377Y6190499D01*
X-20559984Y6184092D01*
X-20694829Y6133798D01*
X-20694831Y6133797D01*
X-20801189Y6054176D01*
X-20866653Y6029759D01*
X-20934926Y6044610D01*
X-20984332Y6094015D01*
X-20999500Y6153443D01*
X-20999500Y15500000D01*
X-18904994Y15500000D01*
X-18885034Y15131858D01*
X-18885033Y15131841D01*
X-18825390Y14768040D01*
X-18825384Y14768014D01*
X-18726757Y14412791D01*
X-18726755Y14412784D01*
X-18590294Y14070290D01*
X-18590285Y14070272D01*
X-18417594Y13744542D01*
X-18210693Y13439386D01*
X-18074504Y13279052D01*
X-18074503Y13279051D01*
X-16758649Y14594905D01*
X-16704544Y14516520D01*
X-16531184Y14336034D01*
X-16405135Y14241314D01*
X-17723480Y12922969D01*
X-17723480Y12922968D01*
X-17704357Y12904853D01*
X-17704345Y12904842D01*
X-17410842Y12681726D01*
X-17410825Y12681714D01*
X-17094933Y12491650D01*
X-17094920Y12491643D01*
X-16760329Y12336845D01*
X-16410932Y12219118D01*
X-16050866Y12139862D01*
X-15684345Y12100001D01*
X-15684337Y12100000D01*
X-15315663Y12100000D01*
X-15315656Y12100001D01*
X-14949135Y12139862D01*
X-14589069Y12219118D01*
X-14239672Y12336845D01*
X-13905081Y12491643D01*
X-13905068Y12491650D01*
X-13589176Y12681714D01*
X-13589159Y12681726D01*
X-13295660Y12904839D01*
X-13276521Y12922969D01*
X-14593121Y14239569D01*
X-14565820Y14256832D01*
X-14378499Y14422784D01*
X-14239489Y14593042D01*
X-12925499Y13279052D01*
X-12925498Y13279052D01*
X-12789310Y13439385D01*
X-12789299Y13439399D01*
X-12582407Y13744542D01*
X-12409716Y14070272D01*
X-12409707Y14070290D01*
X-12273246Y14412784D01*
X-12273244Y14412791D01*
X-12174617Y14768014D01*
X-12174611Y14768040D01*
X-12114968Y15131841D01*
X-12114967Y15131858D01*
X-12095006Y15500000D01*
X12095006Y15500000D01*
X12114966Y15131858D01*
X12114967Y15131841D01*
X12174610Y14768040D01*
X12174616Y14768014D01*
X12273243Y14412791D01*
X12273245Y14412784D01*
X12409706Y14070290D01*
X12409715Y14070272D01*
X12582406Y13744542D01*
X12789307Y13439386D01*
X12925496Y13279052D01*
X12925497Y13279051D01*
X14241351Y14594905D01*
X14295456Y14516520D01*
X14468816Y14336034D01*
X14594865Y14241314D01*
X13276520Y12922969D01*
X13276520Y12922968D01*
X13295643Y12904853D01*
X13295655Y12904842D01*
X13589158Y12681726D01*
X13589175Y12681714D01*
X13905067Y12491650D01*
X13905080Y12491643D01*
X14239671Y12336845D01*
X14589068Y12219118D01*
X14949134Y12139862D01*
X15315655Y12100001D01*
X15315663Y12100000D01*
X15684337Y12100000D01*
X15684344Y12100001D01*
X16050865Y12139862D01*
X16410931Y12219118D01*
X16760328Y12336845D01*
X17094919Y12491643D01*
X17094932Y12491650D01*
X17410824Y12681714D01*
X17410841Y12681726D01*
X17704340Y12904839D01*
X17723479Y12922969D01*
X16406879Y14239569D01*
X16434180Y14256832D01*
X16621501Y14422784D01*
X16760511Y14593042D01*
X18074501Y13279052D01*
X18074502Y13279052D01*
X18210690Y13439385D01*
X18210701Y13439399D01*
X18417593Y13744542D01*
X18590284Y14070272D01*
X18590293Y14070290D01*
X18726754Y14412784D01*
X18726756Y14412791D01*
X18825383Y14768014D01*
X18825389Y14768040D01*
X18885032Y15131841D01*
X18885033Y15131858D01*
X18904994Y15500000D01*
X18904994Y15500003D01*
X18885033Y15868143D01*
X18885032Y15868160D01*
X18825389Y16231961D01*
X18825383Y16231987D01*
X18726756Y16587210D01*
X18726754Y16587217D01*
X18590293Y16929711D01*
X18590284Y16929729D01*
X18417593Y17255459D01*
X18210692Y17560615D01*
X18074502Y17720950D01*
X18074501Y17720951D01*
X16758647Y16405098D01*
X16704544Y16483480D01*
X16531184Y16663966D01*
X16405133Y16758687D01*
X17723478Y18077033D01*
X17723478Y18077034D01*
X17704356Y18095148D01*
X17704344Y18095159D01*
X17410841Y18318275D01*
X17410824Y18318287D01*
X17094932Y18508351D01*
X17094919Y18508358D01*
X16760328Y18663156D01*
X16410931Y18780883D01*
X16050865Y18860139D01*
X15684344Y18900000D01*
X15315655Y18900000D01*
X14949134Y18860139D01*
X14589068Y18780883D01*
X14239671Y18663156D01*
X13905080Y18508358D01*
X13905067Y18508351D01*
X13589175Y18318287D01*
X13589158Y18318275D01*
X13295657Y18095160D01*
X13295643Y18095148D01*
X13276520Y18077034D01*
X13276520Y18077032D01*
X14593120Y16760432D01*
X14565820Y16743168D01*
X14378499Y16577216D01*
X14239488Y16406960D01*
X12925497Y17720951D01*
X12925496Y17720950D01*
X12789314Y17560624D01*
X12789307Y17560614D01*
X12582406Y17255459D01*
X12409715Y16929729D01*
X12409706Y16929711D01*
X12273245Y16587217D01*
X12273243Y16587210D01*
X12174616Y16231987D01*
X12174610Y16231961D01*
X12114967Y15868160D01*
X12114966Y15868143D01*
X12095006Y15500003D01*
X12095006Y15500000D01*
X-12095006Y15500000D01*
X-12095006Y15500003D01*
X-12114967Y15868143D01*
X-12114968Y15868160D01*
X-12174611Y16231961D01*
X-12174617Y16231987D01*
X-12273244Y16587210D01*
X-12273246Y16587217D01*
X-12409707Y16929711D01*
X-12409716Y16929729D01*
X-12582407Y17255459D01*
X-12789308Y17560615D01*
X-12925498Y17720950D01*
X-12925499Y17720951D01*
X-14241353Y16405098D01*
X-14295456Y16483480D01*
X-14468816Y16663966D01*
X-14594867Y16758687D01*
X-13276522Y18077033D01*
X-13276522Y18077034D01*
X-13295644Y18095148D01*
X-13295656Y18095159D01*
X-13589159Y18318275D01*
X-13589176Y18318287D01*
X-13905068Y18508351D01*
X-13905081Y18508358D01*
X-14239672Y18663156D01*
X-14589069Y18780883D01*
X-14949135Y18860139D01*
X-15315656Y18900000D01*
X-15684345Y18900000D01*
X-16050866Y18860139D01*
X-16410932Y18780883D01*
X-16760329Y18663156D01*
X-17094920Y18508358D01*
X-17094933Y18508351D01*
X-17410825Y18318287D01*
X-17410842Y18318275D01*
X-17704343Y18095160D01*
X-17704357Y18095148D01*
X-17723480Y18077034D01*
X-17723480Y18077032D01*
X-16406880Y16760432D01*
X-16434180Y16743168D01*
X-16621501Y16577216D01*
X-16760512Y16406960D01*
X-18074503Y17720951D01*
X-18074504Y17720950D01*
X-18210686Y17560624D01*
X-18210693Y17560614D01*
X-18417594Y17255459D01*
X-18590285Y16929729D01*
X-18590294Y16929711D01*
X-18726755Y16587217D01*
X-18726757Y16587210D01*
X-18825384Y16231987D01*
X-18825390Y16231961D01*
X-18885033Y15868160D01*
X-18885034Y15868143D01*
X-18904994Y15500003D01*
X-18904994Y15500000D01*
X-20999500Y15500000D01*
X-20990506Y15717455D01*
X-20983926Y15868160D01*
X-20979987Y15958390D01*
X-20979573Y15963316D01*
X-20950917Y16193205D01*
X-20920809Y16421901D01*
X-20920023Y16426515D01*
X-20872030Y16655405D01*
X-20822527Y16878694D01*
X-20821432Y16882915D01*
X-20754415Y17108024D01*
X-20685850Y17325479D01*
X-20684509Y17329288D01*
X-20598906Y17548667D01*
X-20511782Y17759003D01*
X-20510250Y17762402D01*
X-20406638Y17974343D01*
X-20301544Y18176225D01*
X-20299880Y18179209D01*
X-20178980Y18382105D01*
X-20178972Y18382116D01*
X-20056728Y18574002D01*
X-20054951Y18576635D01*
X-19917560Y18769064D01*
X-19778997Y18949642D01*
X-19777230Y18951833D01*
X-19624266Y19132437D01*
X-19469584Y19301240D01*
X-19301240Y19469584D01*
X-19299725Y19470973D01*
X-19132437Y19624266D01*
X-18951833Y19777230D01*
X-18949642Y19778997D01*
X-18769064Y19917560D01*
X-18576635Y20054951D01*
X-18574002Y20056728D01*
X-18382110Y20178977D01*
X-18179209Y20299880D01*
X-18176225Y20301544D01*
X-17974352Y20406634D01*
X-17762402Y20510250D01*
X-17759003Y20511782D01*
X-17548667Y20598906D01*
X-17329288Y20684509D01*
X-17325479Y20685850D01*
X-17108024Y20754415D01*
X-16882915Y20821432D01*
X-16878694Y20822527D01*
X-16655405Y20872030D01*
X-16426515Y20920023D01*
X-16421901Y20920809D01*
X-16193201Y20950919D01*
X-15963316Y20979573D01*
X-15958390Y20979987D01*
X-15717577Y20990501D01*
X-15500000Y20999500D01*
X-15499500Y20999500D01*
X15499500Y20999500D01*
X15500000Y20999500D01*
X15717445Y20990507D01*
G37*
%TD.AperFunction*%
%TD*%
M02*
