%TF.GenerationSoftware,KiCad,Pcbnew,7.0.9*%
%TF.CreationDate,2024-01-18T20:35:56-05:00*%
%TF.ProjectId,mt6835-nema17,6d743638-3335-42d6-9e65-6d6131372e6b,rev?*%
%TF.SameCoordinates,PX85e0760PY599de50*%
%TF.FileFunction,Copper,L2,Bot*%
%TF.FilePolarity,Positive*%
%FSLAX46Y46*%
G04 Gerber Fmt 4.6, Leading zero omitted, Abs format (unit mm)*
G04 Created by KiCad (PCBNEW 7.0.9) date 2024-01-18 20:35:56*
%MOMM*%
%LPD*%
G01*
G04 APERTURE LIST*
%TA.AperFunction,ComponentPad*%
%ADD10C,5.800000*%
%TD*%
%TA.AperFunction,ViaPad*%
%ADD11C,0.800000*%
%TD*%
%TA.AperFunction,ViaPad*%
%ADD12C,0.500000*%
%TD*%
%TA.AperFunction,Conductor*%
%ADD13C,0.150000*%
%TD*%
G04 APERTURE END LIST*
D10*
%TO.P,H101,1,1*%
%TO.N,GND*%
X-15500000Y15500000D03*
X-15500000Y-15500000D03*
X15500000Y15500000D03*
X15500000Y-15500000D03*
%TD*%
D11*
%TO.N,GND*%
X-4180000Y2210000D03*
X5020000Y-30000D03*
X6350000Y-1830000D03*
X1540000Y-290000D03*
X-11650000Y1420000D03*
X-410000Y2570000D03*
X5040000Y-3450000D03*
D12*
%TO.N,/ENC_1*%
X-1630000Y-9350000D03*
X-8160000Y-7770000D03*
%TO.N,/ENC_2*%
X-9070000Y-7770000D03*
X1270000Y-9360000D03*
%TD*%
D13*
%TO.N,/ENC_2*%
X-9070000Y-7770000D02*
X-6610000Y-10230000D01*
X-6610000Y-10230000D02*
X400000Y-10230000D01*
X400000Y-10230000D02*
X1270000Y-9360000D01*
%TO.N,/ENC_1*%
X-8160000Y-7770000D02*
X-6580000Y-9350000D01*
X-6580000Y-9350000D02*
X-1630000Y-9350000D01*
%TD*%
%TA.AperFunction,Conductor*%
%TO.N,GND*%
G36*
X15717445Y20990507D02*
G01*
X15958385Y20979987D01*
X15963320Y20979573D01*
X16193261Y20950911D01*
X16421921Y20920807D01*
X16426490Y20920028D01*
X16655391Y20872032D01*
X16793210Y20841478D01*
X16878677Y20822530D01*
X16882939Y20821425D01*
X17107969Y20754431D01*
X17325459Y20685856D01*
X17329305Y20684502D01*
X17548675Y20598903D01*
X17758977Y20511792D01*
X17762437Y20510232D01*
X17974350Y20406635D01*
X18176129Y20301595D01*
X18179238Y20299861D01*
X18285211Y20236716D01*
X18382116Y20178973D01*
X18573954Y20056758D01*
X18576669Y20054926D01*
X18769063Y19917560D01*
X18949600Y19779029D01*
X18951872Y19777195D01*
X19132397Y19624299D01*
X19132415Y19624284D01*
X19301239Y19469584D01*
X19469583Y19301240D01*
X19624281Y19132418D01*
X19777186Y18951883D01*
X19779044Y18949579D01*
X19817088Y18900000D01*
X19908489Y18780883D01*
X19917559Y18769063D01*
X19961743Y18707180D01*
X20054924Y18576671D01*
X20056755Y18573957D01*
X20178973Y18382116D01*
X20299859Y18179240D01*
X20301593Y18176132D01*
X20406638Y17974343D01*
X20510220Y17762461D01*
X20511800Y17758957D01*
X20598915Y17548643D01*
X20684487Y17329341D01*
X20685859Y17325447D01*
X20754426Y17107983D01*
X20821420Y16882951D01*
X20822528Y16878679D01*
X20872038Y16655360D01*
X20920022Y16426512D01*
X20920811Y16421880D01*
X20950917Y16193205D01*
X20979569Y15963338D01*
X20979986Y15958371D01*
X20990505Y15717455D01*
X20999500Y15499999D01*
X20999500Y-15499999D01*
X20990505Y-15717454D01*
X20979986Y-15958369D01*
X20979569Y-15963336D01*
X20950917Y-16193204D01*
X20920811Y-16421878D01*
X20920022Y-16426510D01*
X20872038Y-16655359D01*
X20822528Y-16878677D01*
X20821420Y-16882949D01*
X20754426Y-17107982D01*
X20685859Y-17325445D01*
X20684487Y-17329339D01*
X20598915Y-17548642D01*
X20511800Y-17758955D01*
X20510220Y-17762459D01*
X20406638Y-17974342D01*
X20301592Y-18176130D01*
X20299859Y-18179238D01*
X20178973Y-18382115D01*
X20056755Y-18573955D01*
X20054924Y-18576668D01*
X19917565Y-18769055D01*
X19779044Y-18949577D01*
X19777168Y-18951904D01*
X19624283Y-19132414D01*
X19469583Y-19301239D01*
X19301239Y-19469583D01*
X19132414Y-19624283D01*
X18951904Y-19777168D01*
X18949577Y-19779044D01*
X18769055Y-19917565D01*
X18576668Y-20054924D01*
X18573955Y-20056755D01*
X18382115Y-20178973D01*
X18179238Y-20299859D01*
X18176130Y-20301592D01*
X17974342Y-20406638D01*
X17762459Y-20510220D01*
X17758955Y-20511800D01*
X17548642Y-20598915D01*
X17329339Y-20684487D01*
X17325445Y-20685859D01*
X17107982Y-20754426D01*
X16882949Y-20821420D01*
X16878677Y-20822528D01*
X16655359Y-20872038D01*
X16426510Y-20920022D01*
X16421878Y-20920811D01*
X16193204Y-20950917D01*
X15963336Y-20979569D01*
X15958369Y-20979986D01*
X15717454Y-20990505D01*
X15499999Y-20999500D01*
X-15499999Y-20999500D01*
X-15717455Y-20990505D01*
X-15958371Y-20979986D01*
X-15963338Y-20979569D01*
X-16193142Y-20950925D01*
X-16421896Y-20920807D01*
X-16426528Y-20920018D01*
X-16655313Y-20872048D01*
X-16878672Y-20822530D01*
X-16882945Y-20821422D01*
X-17107983Y-20754426D01*
X-17325447Y-20685859D01*
X-17329341Y-20684487D01*
X-17548643Y-20598915D01*
X-17758957Y-20511800D01*
X-17762461Y-20510220D01*
X-17974331Y-20406643D01*
X-18046352Y-20369151D01*
X-18176187Y-20301564D01*
X-18179243Y-20299859D01*
X-18301807Y-20226826D01*
X-18382099Y-20178982D01*
X-18573977Y-20056742D01*
X-18576692Y-20054910D01*
X-18681047Y-19980402D01*
X-18769056Y-19917564D01*
X-18845514Y-19858897D01*
X-18949579Y-19779044D01*
X-18951883Y-19777186D01*
X-19132418Y-19624281D01*
X-19301240Y-19469583D01*
X-19469584Y-19301239D01*
X-19624284Y-19132415D01*
X-19624285Y-19132414D01*
X-19777195Y-18951872D01*
X-19779029Y-18949600D01*
X-19917560Y-18769063D01*
X-20054927Y-18576668D01*
X-20056744Y-18573975D01*
X-20178983Y-18382098D01*
X-20196871Y-18352079D01*
X-20299878Y-18179212D01*
X-20301560Y-18176195D01*
X-20406644Y-17974330D01*
X-20434248Y-17917866D01*
X-20510238Y-17762426D01*
X-20511792Y-17758977D01*
X-20598903Y-17548675D01*
X-20684502Y-17329305D01*
X-20685856Y-17325459D01*
X-20754436Y-17107951D01*
X-20765486Y-17070834D01*
X-20821428Y-16882928D01*
X-20822532Y-16878670D01*
X-20872039Y-16655359D01*
X-20920023Y-16426510D01*
X-20920809Y-16421894D01*
X-20925400Y-16387024D01*
X-20950918Y-16193204D01*
X-20979573Y-15963320D01*
X-20979987Y-15958385D01*
X-20990509Y-15717381D01*
X-20999500Y-15500000D01*
X-20999500Y-15499999D01*
X-18904994Y-15499999D01*
X-18885034Y-15868142D01*
X-18885033Y-15868159D01*
X-18825390Y-16231960D01*
X-18825384Y-16231986D01*
X-18726757Y-16587209D01*
X-18726755Y-16587216D01*
X-18590294Y-16929710D01*
X-18590285Y-16929728D01*
X-18417594Y-17255458D01*
X-18210693Y-17560614D01*
X-18074504Y-17720948D01*
X-18074503Y-17720949D01*
X-16758649Y-16405095D01*
X-16704544Y-16483480D01*
X-16531184Y-16663966D01*
X-16405135Y-16758686D01*
X-17723480Y-18077031D01*
X-17723480Y-18077032D01*
X-17704357Y-18095147D01*
X-17704345Y-18095158D01*
X-17410842Y-18318274D01*
X-17410825Y-18318286D01*
X-17094933Y-18508350D01*
X-17094920Y-18508357D01*
X-16760329Y-18663155D01*
X-16410932Y-18780882D01*
X-16050866Y-18860138D01*
X-15684345Y-18899999D01*
X-15684337Y-18900000D01*
X-15315663Y-18900000D01*
X-15315656Y-18899999D01*
X-14949135Y-18860138D01*
X-14589069Y-18780882D01*
X-14239672Y-18663155D01*
X-13905081Y-18508357D01*
X-13905068Y-18508350D01*
X-13589176Y-18318286D01*
X-13589159Y-18318274D01*
X-13295660Y-18095161D01*
X-13276521Y-18077031D01*
X-14593121Y-16760431D01*
X-14565820Y-16743168D01*
X-14378499Y-16577216D01*
X-14239489Y-16406958D01*
X-12925499Y-17720948D01*
X-12925498Y-17720948D01*
X-12789310Y-17560615D01*
X-12789299Y-17560601D01*
X-12582407Y-17255458D01*
X-12409716Y-16929728D01*
X-12409707Y-16929710D01*
X-12273246Y-16587216D01*
X-12273244Y-16587209D01*
X-12174617Y-16231986D01*
X-12174611Y-16231960D01*
X-12114968Y-15868159D01*
X-12114967Y-15868142D01*
X-12095006Y-15499999D01*
X12095006Y-15499999D01*
X12114966Y-15868142D01*
X12114967Y-15868159D01*
X12174610Y-16231960D01*
X12174616Y-16231986D01*
X12273243Y-16587209D01*
X12273245Y-16587216D01*
X12409706Y-16929710D01*
X12409715Y-16929728D01*
X12582406Y-17255458D01*
X12789307Y-17560614D01*
X12925496Y-17720948D01*
X12925497Y-17720949D01*
X14241351Y-16405095D01*
X14295456Y-16483480D01*
X14468816Y-16663966D01*
X14594865Y-16758686D01*
X13276520Y-18077031D01*
X13276520Y-18077032D01*
X13295643Y-18095147D01*
X13295655Y-18095158D01*
X13589158Y-18318274D01*
X13589175Y-18318286D01*
X13905067Y-18508350D01*
X13905080Y-18508357D01*
X14239671Y-18663155D01*
X14589068Y-18780882D01*
X14949134Y-18860138D01*
X15315655Y-18899999D01*
X15315663Y-18900000D01*
X15684337Y-18900000D01*
X15684344Y-18899999D01*
X16050865Y-18860138D01*
X16410931Y-18780882D01*
X16760328Y-18663155D01*
X17094919Y-18508357D01*
X17094932Y-18508350D01*
X17410824Y-18318286D01*
X17410841Y-18318274D01*
X17704340Y-18095161D01*
X17723479Y-18077031D01*
X16406879Y-16760431D01*
X16434180Y-16743168D01*
X16621501Y-16577216D01*
X16760511Y-16406958D01*
X18074501Y-17720948D01*
X18074502Y-17720948D01*
X18210690Y-17560615D01*
X18210701Y-17560601D01*
X18417593Y-17255458D01*
X18590284Y-16929728D01*
X18590293Y-16929710D01*
X18726754Y-16587216D01*
X18726756Y-16587209D01*
X18825383Y-16231986D01*
X18825389Y-16231960D01*
X18885032Y-15868159D01*
X18885033Y-15868142D01*
X18904994Y-15499999D01*
X18904994Y-15499997D01*
X18885033Y-15131857D01*
X18885032Y-15131840D01*
X18825389Y-14768039D01*
X18825383Y-14768013D01*
X18726756Y-14412790D01*
X18726754Y-14412783D01*
X18590293Y-14070289D01*
X18590284Y-14070271D01*
X18417593Y-13744541D01*
X18210692Y-13439385D01*
X18074502Y-13279050D01*
X18074501Y-13279049D01*
X16758647Y-14594902D01*
X16704544Y-14516520D01*
X16531184Y-14336034D01*
X16405133Y-14241313D01*
X17723478Y-12922967D01*
X17723478Y-12922966D01*
X17704356Y-12904852D01*
X17704344Y-12904841D01*
X17410841Y-12681725D01*
X17410824Y-12681713D01*
X17094932Y-12491649D01*
X17094919Y-12491642D01*
X16760328Y-12336844D01*
X16410931Y-12219117D01*
X16050865Y-12139861D01*
X15684344Y-12100000D01*
X15315655Y-12100000D01*
X14949134Y-12139861D01*
X14589068Y-12219117D01*
X14239671Y-12336844D01*
X13905080Y-12491642D01*
X13905067Y-12491649D01*
X13589175Y-12681713D01*
X13589158Y-12681725D01*
X13295657Y-12904840D01*
X13295643Y-12904852D01*
X13276520Y-12922966D01*
X13276520Y-12922968D01*
X14593120Y-14239568D01*
X14565820Y-14256832D01*
X14378499Y-14422784D01*
X14239488Y-14593040D01*
X12925497Y-13279049D01*
X12925496Y-13279050D01*
X12789314Y-13439376D01*
X12789307Y-13439386D01*
X12582406Y-13744541D01*
X12409715Y-14070271D01*
X12409706Y-14070289D01*
X12273245Y-14412783D01*
X12273243Y-14412790D01*
X12174616Y-14768013D01*
X12174610Y-14768039D01*
X12114967Y-15131840D01*
X12114966Y-15131857D01*
X12095006Y-15499997D01*
X12095006Y-15499999D01*
X-12095006Y-15499999D01*
X-12095006Y-15499997D01*
X-12114967Y-15131857D01*
X-12114968Y-15131840D01*
X-12174611Y-14768039D01*
X-12174617Y-14768013D01*
X-12273244Y-14412790D01*
X-12273246Y-14412783D01*
X-12409707Y-14070289D01*
X-12409716Y-14070271D01*
X-12582407Y-13744541D01*
X-12789308Y-13439385D01*
X-12925498Y-13279050D01*
X-12925499Y-13279049D01*
X-14241353Y-14594902D01*
X-14295456Y-14516520D01*
X-14468816Y-14336034D01*
X-14594867Y-14241313D01*
X-13276522Y-12922967D01*
X-13276522Y-12922966D01*
X-13295644Y-12904852D01*
X-13295656Y-12904841D01*
X-13589159Y-12681725D01*
X-13589176Y-12681713D01*
X-13905068Y-12491649D01*
X-13905081Y-12491642D01*
X-14239672Y-12336844D01*
X-14589069Y-12219117D01*
X-14949135Y-12139861D01*
X-15315656Y-12100000D01*
X-15684345Y-12100000D01*
X-16050866Y-12139861D01*
X-16410932Y-12219117D01*
X-16760329Y-12336844D01*
X-17094920Y-12491642D01*
X-17094933Y-12491649D01*
X-17410825Y-12681713D01*
X-17410842Y-12681725D01*
X-17704343Y-12904840D01*
X-17704357Y-12904852D01*
X-17723480Y-12922966D01*
X-17723480Y-12922968D01*
X-16406880Y-14239568D01*
X-16434180Y-14256832D01*
X-16621501Y-14422784D01*
X-16760512Y-14593040D01*
X-18074503Y-13279049D01*
X-18074504Y-13279050D01*
X-18210686Y-13439376D01*
X-18210693Y-13439386D01*
X-18417594Y-13744541D01*
X-18590285Y-14070271D01*
X-18590294Y-14070289D01*
X-18726755Y-14412783D01*
X-18726757Y-14412790D01*
X-18825384Y-14768013D01*
X-18825390Y-14768039D01*
X-18885033Y-15131840D01*
X-18885034Y-15131857D01*
X-18904994Y-15499997D01*
X-18904994Y-15499999D01*
X-20999500Y-15499999D01*
X-20999500Y-7770002D01*
X-9825249Y-7770002D01*
X-9806315Y-7938056D01*
X-9750455Y-8097694D01*
X-9750453Y-8097697D01*
X-9660482Y-8240884D01*
X-9660477Y-8240890D01*
X-9540891Y-8360476D01*
X-9540885Y-8360481D01*
X-9397698Y-8450452D01*
X-9397692Y-8450455D01*
X-9397690Y-8450456D01*
X-9238059Y-8506313D01*
X-9179194Y-8512945D01*
X-9114781Y-8540010D01*
X-9105396Y-8548484D01*
X-7046480Y-10607400D01*
X-7041139Y-10613490D01*
X-7020451Y-10640451D01*
X-7020448Y-10640453D01*
X-6991514Y-10662656D01*
X-6991509Y-10662660D01*
X-6990268Y-10663612D01*
X-6900233Y-10732698D01*
X-6760236Y-10790687D01*
X-6647720Y-10805500D01*
X-6647719Y-10805500D01*
X-6645706Y-10805765D01*
X-6645687Y-10805766D01*
X-6610000Y-10810465D01*
X-6609999Y-10810465D01*
X-6596735Y-10808718D01*
X-6576318Y-10806030D01*
X-6568219Y-10805500D01*
X358219Y-10805500D01*
X366317Y-10806030D01*
X386734Y-10808718D01*
X399999Y-10810465D01*
X400000Y-10810465D01*
X435785Y-10805754D01*
X435809Y-10805751D01*
X437715Y-10805500D01*
X437720Y-10805500D01*
X550236Y-10790687D01*
X690233Y-10732698D01*
X788358Y-10657405D01*
X788370Y-10657394D01*
X810449Y-10640453D01*
X810451Y-10640451D01*
X831138Y-10613489D01*
X836480Y-10607398D01*
X1305396Y-10138482D01*
X1366717Y-10104999D01*
X1379173Y-10102947D01*
X1438059Y-10096313D01*
X1597690Y-10040456D01*
X1597693Y-10040453D01*
X1597697Y-10040452D01*
X1740884Y-9950481D01*
X1740885Y-9950480D01*
X1740890Y-9950477D01*
X1860477Y-9830890D01*
X1950452Y-9687697D01*
X1950454Y-9687694D01*
X1950454Y-9687692D01*
X1950456Y-9687690D01*
X2006313Y-9528059D01*
X2006313Y-9528058D01*
X2006314Y-9528056D01*
X2025249Y-9360002D01*
X2025249Y-9359997D01*
X2006314Y-9191943D01*
X1950454Y-9032305D01*
X1950452Y-9032302D01*
X1860481Y-8889115D01*
X1860476Y-8889109D01*
X1740890Y-8769523D01*
X1740884Y-8769518D01*
X1597697Y-8679547D01*
X1597694Y-8679545D01*
X1438056Y-8623685D01*
X1270003Y-8604751D01*
X1269997Y-8604751D01*
X1101943Y-8623685D01*
X942305Y-8679545D01*
X942302Y-8679547D01*
X799115Y-8769518D01*
X799109Y-8769523D01*
X679523Y-8889109D01*
X679518Y-8889115D01*
X589547Y-9032302D01*
X589544Y-9032307D01*
X533685Y-9191946D01*
X527053Y-9250808D01*
X499986Y-9315222D01*
X491514Y-9324604D01*
X197937Y-9618182D01*
X136617Y-9651666D01*
X110258Y-9654500D01*
X-770304Y-9654500D01*
X-837343Y-9634815D01*
X-883098Y-9582011D01*
X-893524Y-9516616D01*
X-874751Y-9350002D01*
X-874751Y-9349997D01*
X-893686Y-9181943D01*
X-949546Y-9022305D01*
X-949548Y-9022302D01*
X-1039519Y-8879115D01*
X-1039524Y-8879109D01*
X-1159110Y-8759523D01*
X-1159116Y-8759518D01*
X-1302303Y-8669547D01*
X-1302306Y-8669545D01*
X-1461944Y-8613685D01*
X-1629997Y-8594751D01*
X-1630003Y-8594751D01*
X-1798057Y-8613685D01*
X-1957693Y-8669545D01*
X-2094478Y-8755494D01*
X-2160450Y-8774500D01*
X-6290258Y-8774500D01*
X-6357297Y-8754815D01*
X-6377939Y-8738181D01*
X-7381516Y-7734604D01*
X-7415001Y-7673281D01*
X-7417054Y-7660821D01*
X-7423687Y-7601941D01*
X-7479544Y-7442310D01*
X-7479547Y-7442305D01*
X-7479548Y-7442302D01*
X-7569519Y-7299115D01*
X-7569524Y-7299109D01*
X-7689110Y-7179523D01*
X-7689116Y-7179518D01*
X-7832303Y-7089547D01*
X-7832306Y-7089545D01*
X-7991944Y-7033685D01*
X-8159997Y-7014751D01*
X-8160003Y-7014751D01*
X-8328057Y-7033685D01*
X-8487695Y-7089545D01*
X-8487696Y-7089546D01*
X-8549029Y-7128084D01*
X-8616266Y-7147084D01*
X-8680971Y-7128084D01*
X-8742305Y-7089546D01*
X-8742306Y-7089545D01*
X-8901944Y-7033685D01*
X-9069997Y-7014751D01*
X-9070003Y-7014751D01*
X-9238057Y-7033685D01*
X-9397695Y-7089545D01*
X-9397698Y-7089547D01*
X-9540885Y-7179518D01*
X-9540891Y-7179523D01*
X-9660477Y-7299109D01*
X-9660482Y-7299115D01*
X-9750453Y-7442302D01*
X-9750455Y-7442305D01*
X-9806315Y-7601943D01*
X-9825249Y-7769997D01*
X-9825249Y-7770002D01*
X-20999500Y-7770002D01*
X-20999500Y15500000D01*
X-18904994Y15500000D01*
X-18885034Y15131858D01*
X-18885033Y15131841D01*
X-18825390Y14768040D01*
X-18825384Y14768014D01*
X-18726757Y14412791D01*
X-18726755Y14412784D01*
X-18590294Y14070290D01*
X-18590285Y14070272D01*
X-18417594Y13744542D01*
X-18210693Y13439386D01*
X-18074504Y13279052D01*
X-18074503Y13279051D01*
X-16758649Y14594905D01*
X-16704544Y14516520D01*
X-16531184Y14336034D01*
X-16405135Y14241314D01*
X-17723480Y12922969D01*
X-17723480Y12922968D01*
X-17704357Y12904853D01*
X-17704345Y12904842D01*
X-17410842Y12681726D01*
X-17410825Y12681714D01*
X-17094933Y12491650D01*
X-17094920Y12491643D01*
X-16760329Y12336845D01*
X-16410932Y12219118D01*
X-16050866Y12139862D01*
X-15684345Y12100001D01*
X-15684337Y12100000D01*
X-15315663Y12100000D01*
X-15315656Y12100001D01*
X-14949135Y12139862D01*
X-14589069Y12219118D01*
X-14239672Y12336845D01*
X-13905081Y12491643D01*
X-13905068Y12491650D01*
X-13589176Y12681714D01*
X-13589159Y12681726D01*
X-13295660Y12904839D01*
X-13276521Y12922969D01*
X-14593121Y14239569D01*
X-14565820Y14256832D01*
X-14378499Y14422784D01*
X-14239489Y14593042D01*
X-12925499Y13279052D01*
X-12925498Y13279052D01*
X-12789310Y13439385D01*
X-12789299Y13439399D01*
X-12582407Y13744542D01*
X-12409716Y14070272D01*
X-12409707Y14070290D01*
X-12273246Y14412784D01*
X-12273244Y14412791D01*
X-12174617Y14768014D01*
X-12174611Y14768040D01*
X-12114968Y15131841D01*
X-12114967Y15131858D01*
X-12095006Y15500000D01*
X12095006Y15500000D01*
X12114966Y15131858D01*
X12114967Y15131841D01*
X12174610Y14768040D01*
X12174616Y14768014D01*
X12273243Y14412791D01*
X12273245Y14412784D01*
X12409706Y14070290D01*
X12409715Y14070272D01*
X12582406Y13744542D01*
X12789307Y13439386D01*
X12925496Y13279052D01*
X12925497Y13279051D01*
X14241351Y14594905D01*
X14295456Y14516520D01*
X14468816Y14336034D01*
X14594865Y14241314D01*
X13276520Y12922969D01*
X13276520Y12922968D01*
X13295643Y12904853D01*
X13295655Y12904842D01*
X13589158Y12681726D01*
X13589175Y12681714D01*
X13905067Y12491650D01*
X13905080Y12491643D01*
X14239671Y12336845D01*
X14589068Y12219118D01*
X14949134Y12139862D01*
X15315655Y12100001D01*
X15315663Y12100000D01*
X15684337Y12100000D01*
X15684344Y12100001D01*
X16050865Y12139862D01*
X16410931Y12219118D01*
X16760328Y12336845D01*
X17094919Y12491643D01*
X17094932Y12491650D01*
X17410824Y12681714D01*
X17410841Y12681726D01*
X17704340Y12904839D01*
X17723479Y12922969D01*
X16406879Y14239569D01*
X16434180Y14256832D01*
X16621501Y14422784D01*
X16760511Y14593042D01*
X18074501Y13279052D01*
X18074502Y13279052D01*
X18210690Y13439385D01*
X18210701Y13439399D01*
X18417593Y13744542D01*
X18590284Y14070272D01*
X18590293Y14070290D01*
X18726754Y14412784D01*
X18726756Y14412791D01*
X18825383Y14768014D01*
X18825389Y14768040D01*
X18885032Y15131841D01*
X18885033Y15131858D01*
X18904994Y15500000D01*
X18904994Y15500003D01*
X18885033Y15868143D01*
X18885032Y15868160D01*
X18825389Y16231961D01*
X18825383Y16231987D01*
X18726756Y16587210D01*
X18726754Y16587217D01*
X18590293Y16929711D01*
X18590284Y16929729D01*
X18417593Y17255459D01*
X18210692Y17560615D01*
X18074502Y17720950D01*
X18074501Y17720951D01*
X16758647Y16405098D01*
X16704544Y16483480D01*
X16531184Y16663966D01*
X16405133Y16758687D01*
X17723478Y18077033D01*
X17723478Y18077034D01*
X17704356Y18095148D01*
X17704344Y18095159D01*
X17410841Y18318275D01*
X17410824Y18318287D01*
X17094932Y18508351D01*
X17094919Y18508358D01*
X16760328Y18663156D01*
X16410931Y18780883D01*
X16050865Y18860139D01*
X15684344Y18900000D01*
X15315655Y18900000D01*
X14949134Y18860139D01*
X14589068Y18780883D01*
X14239671Y18663156D01*
X13905080Y18508358D01*
X13905067Y18508351D01*
X13589175Y18318287D01*
X13589158Y18318275D01*
X13295657Y18095160D01*
X13295643Y18095148D01*
X13276520Y18077034D01*
X13276520Y18077032D01*
X14593120Y16760432D01*
X14565820Y16743168D01*
X14378499Y16577216D01*
X14239488Y16406960D01*
X12925497Y17720951D01*
X12925496Y17720950D01*
X12789314Y17560624D01*
X12789307Y17560614D01*
X12582406Y17255459D01*
X12409715Y16929729D01*
X12409706Y16929711D01*
X12273245Y16587217D01*
X12273243Y16587210D01*
X12174616Y16231987D01*
X12174610Y16231961D01*
X12114967Y15868160D01*
X12114966Y15868143D01*
X12095006Y15500003D01*
X12095006Y15500000D01*
X-12095006Y15500000D01*
X-12095006Y15500003D01*
X-12114967Y15868143D01*
X-12114968Y15868160D01*
X-12174611Y16231961D01*
X-12174617Y16231987D01*
X-12273244Y16587210D01*
X-12273246Y16587217D01*
X-12409707Y16929711D01*
X-12409716Y16929729D01*
X-12582407Y17255459D01*
X-12789308Y17560615D01*
X-12925498Y17720950D01*
X-12925499Y17720951D01*
X-14241353Y16405098D01*
X-14295456Y16483480D01*
X-14468816Y16663966D01*
X-14594867Y16758687D01*
X-13276522Y18077033D01*
X-13276522Y18077034D01*
X-13295644Y18095148D01*
X-13295656Y18095159D01*
X-13589159Y18318275D01*
X-13589176Y18318287D01*
X-13905068Y18508351D01*
X-13905081Y18508358D01*
X-14239672Y18663156D01*
X-14589069Y18780883D01*
X-14949135Y18860139D01*
X-15315656Y18900000D01*
X-15684345Y18900000D01*
X-16050866Y18860139D01*
X-16410932Y18780883D01*
X-16760329Y18663156D01*
X-17094920Y18508358D01*
X-17094933Y18508351D01*
X-17410825Y18318287D01*
X-17410842Y18318275D01*
X-17704343Y18095160D01*
X-17704357Y18095148D01*
X-17723480Y18077034D01*
X-17723480Y18077032D01*
X-16406880Y16760432D01*
X-16434180Y16743168D01*
X-16621501Y16577216D01*
X-16760512Y16406960D01*
X-18074503Y17720951D01*
X-18074504Y17720950D01*
X-18210686Y17560624D01*
X-18210693Y17560614D01*
X-18417594Y17255459D01*
X-18590285Y16929729D01*
X-18590294Y16929711D01*
X-18726755Y16587217D01*
X-18726757Y16587210D01*
X-18825384Y16231987D01*
X-18825390Y16231961D01*
X-18885033Y15868160D01*
X-18885034Y15868143D01*
X-18904994Y15500003D01*
X-18904994Y15500000D01*
X-20999500Y15500000D01*
X-20990506Y15717455D01*
X-20983926Y15868160D01*
X-20979987Y15958390D01*
X-20979573Y15963316D01*
X-20950917Y16193205D01*
X-20920809Y16421901D01*
X-20920023Y16426515D01*
X-20872030Y16655405D01*
X-20822527Y16878694D01*
X-20821432Y16882915D01*
X-20754415Y17108024D01*
X-20685850Y17325479D01*
X-20684509Y17329288D01*
X-20598906Y17548667D01*
X-20511782Y17759003D01*
X-20510250Y17762402D01*
X-20406638Y17974343D01*
X-20301544Y18176225D01*
X-20299880Y18179209D01*
X-20178980Y18382105D01*
X-20178972Y18382116D01*
X-20056728Y18574002D01*
X-20054951Y18576635D01*
X-19917560Y18769064D01*
X-19778997Y18949642D01*
X-19777230Y18951833D01*
X-19624266Y19132437D01*
X-19469584Y19301240D01*
X-19301240Y19469584D01*
X-19299725Y19470973D01*
X-19132437Y19624266D01*
X-18951833Y19777230D01*
X-18949642Y19778997D01*
X-18769064Y19917560D01*
X-18576635Y20054951D01*
X-18574002Y20056728D01*
X-18382110Y20178977D01*
X-18179209Y20299880D01*
X-18176225Y20301544D01*
X-17974352Y20406634D01*
X-17762402Y20510250D01*
X-17759003Y20511782D01*
X-17548667Y20598906D01*
X-17329288Y20684509D01*
X-17325479Y20685850D01*
X-17108024Y20754415D01*
X-16882915Y20821432D01*
X-16878694Y20822527D01*
X-16655405Y20872030D01*
X-16426515Y20920023D01*
X-16421901Y20920809D01*
X-16193201Y20950919D01*
X-15963316Y20979573D01*
X-15958390Y20979987D01*
X-15717577Y20990501D01*
X-15500000Y20999500D01*
X-15499500Y20999500D01*
X15499500Y20999500D01*
X15500000Y20999500D01*
X15717445Y20990507D01*
G37*
%TD.AperFunction*%
%TD*%
M02*
