%TF.GenerationSoftware,KiCad,Pcbnew,7.0.9*%
%TF.CreationDate,2024-01-18T20:36:03-05:00*%
%TF.ProjectId,mt6835-nema17,6d743638-3335-42d6-9e65-6d6131372e6b,rev?*%
%TF.SameCoordinates,PX85e0760PY599de50*%
%TF.FileFunction,Drillmap*%
%TF.FilePolarity,Positive*%
%FSLAX45Y45*%
G04 Gerber Fmt 4.5, Leading zero omitted, Abs format (unit mm)*
G04 Created by KiCad (PCBNEW 7.0.9) date 2024-01-18 20:36:03*
%MOMM*%
%LPD*%
G01*
G04 APERTURE LIST*
%ADD10C,0.200000*%
%ADD11C,0.100000*%
%ADD12C,0.310000*%
G04 APERTURE END LIST*
D10*
D11*
X-922000Y-762000D02*
X-892000Y-792000D01*
X-892000Y-762000D02*
X-922000Y-792000D01*
X-831000Y-762000D02*
X-801000Y-792000D01*
X-801000Y-762000D02*
X-831000Y-792000D01*
X-178000Y-920000D02*
X-148000Y-950000D01*
X-148000Y-920000D02*
X-178000Y-950000D01*
X112000Y-921000D02*
X142000Y-951000D01*
X142000Y-921000D02*
X112000Y-951000D01*
X-1145000Y142000D02*
G75*
G03*
X-1145000Y142000I-20000J0D01*
G01*
X-398000Y221000D02*
G75*
G03*
X-398000Y221000I-20000J0D01*
G01*
X-21000Y257000D02*
G75*
G03*
X-21000Y257000I-20000J0D01*
G01*
X174000Y-29000D02*
G75*
G03*
X174000Y-29000I-20000J0D01*
G01*
X522000Y-3000D02*
G75*
G03*
X522000Y-3000I-20000J0D01*
G01*
X524000Y-345000D02*
G75*
G03*
X524000Y-345000I-20000J0D01*
G01*
X655000Y-183000D02*
G75*
G03*
X655000Y-183000I-20000J0D01*
G01*
D12*
X-1550000Y1705000D02*
X-1550000Y1395000D01*
X-1705000Y1550000D02*
X-1395000Y1550000D01*
X-1550000Y-1395000D02*
X-1550000Y-1705000D01*
X-1705000Y-1550000D02*
X-1395000Y-1550000D01*
X1550000Y1705000D02*
X1550000Y1395000D01*
X1395000Y1550000D02*
X1705000Y1550000D01*
X1550000Y-1395000D02*
X1550000Y-1705000D01*
X1395000Y-1550000D02*
X1705000Y-1550000D01*
D10*
X-1840023Y-2412284D02*
X-1840023Y-2212284D01*
X-1840023Y-2212284D02*
X-1792404Y-2212284D01*
X-1792404Y-2212284D02*
X-1763833Y-2221808D01*
X-1763833Y-2221808D02*
X-1744785Y-2240855D01*
X-1744785Y-2240855D02*
X-1735261Y-2259903D01*
X-1735261Y-2259903D02*
X-1725737Y-2297998D01*
X-1725737Y-2297998D02*
X-1725737Y-2326570D01*
X-1725737Y-2326570D02*
X-1735261Y-2364665D01*
X-1735261Y-2364665D02*
X-1744785Y-2383712D01*
X-1744785Y-2383712D02*
X-1763833Y-2402760D01*
X-1763833Y-2402760D02*
X-1792404Y-2412284D01*
X-1792404Y-2412284D02*
X-1840023Y-2412284D01*
X-1640023Y-2412284D02*
X-1640023Y-2278950D01*
X-1640023Y-2317046D02*
X-1630499Y-2297998D01*
X-1630499Y-2297998D02*
X-1620976Y-2288474D01*
X-1620976Y-2288474D02*
X-1601928Y-2278950D01*
X-1601928Y-2278950D02*
X-1582880Y-2278950D01*
X-1516214Y-2412284D02*
X-1516214Y-2278950D01*
X-1516214Y-2212284D02*
X-1525737Y-2221808D01*
X-1525737Y-2221808D02*
X-1516214Y-2231331D01*
X-1516214Y-2231331D02*
X-1506690Y-2221808D01*
X-1506690Y-2221808D02*
X-1516214Y-2212284D01*
X-1516214Y-2212284D02*
X-1516214Y-2231331D01*
X-1392404Y-2412284D02*
X-1411452Y-2402760D01*
X-1411452Y-2402760D02*
X-1420976Y-2383712D01*
X-1420976Y-2383712D02*
X-1420976Y-2212284D01*
X-1287642Y-2412284D02*
X-1306690Y-2402760D01*
X-1306690Y-2402760D02*
X-1316214Y-2383712D01*
X-1316214Y-2383712D02*
X-1316214Y-2212284D01*
X-1059071Y-2412284D02*
X-1059071Y-2212284D01*
X-1059071Y-2212284D02*
X-992404Y-2355141D01*
X-992404Y-2355141D02*
X-925737Y-2212284D01*
X-925737Y-2212284D02*
X-925737Y-2412284D01*
X-744785Y-2412284D02*
X-744785Y-2307522D01*
X-744785Y-2307522D02*
X-754309Y-2288474D01*
X-754309Y-2288474D02*
X-773356Y-2278950D01*
X-773356Y-2278950D02*
X-811452Y-2278950D01*
X-811452Y-2278950D02*
X-830499Y-2288474D01*
X-744785Y-2402760D02*
X-763833Y-2412284D01*
X-763833Y-2412284D02*
X-811452Y-2412284D01*
X-811452Y-2412284D02*
X-830499Y-2402760D01*
X-830499Y-2402760D02*
X-840023Y-2383712D01*
X-840023Y-2383712D02*
X-840023Y-2364665D01*
X-840023Y-2364665D02*
X-830499Y-2345617D01*
X-830499Y-2345617D02*
X-811452Y-2336093D01*
X-811452Y-2336093D02*
X-763833Y-2336093D01*
X-763833Y-2336093D02*
X-744785Y-2326570D01*
X-649547Y-2278950D02*
X-649547Y-2478950D01*
X-649547Y-2288474D02*
X-630499Y-2278950D01*
X-630499Y-2278950D02*
X-592404Y-2278950D01*
X-592404Y-2278950D02*
X-573357Y-2288474D01*
X-573357Y-2288474D02*
X-563833Y-2297998D01*
X-563833Y-2297998D02*
X-554309Y-2317046D01*
X-554309Y-2317046D02*
X-554309Y-2374189D01*
X-554309Y-2374189D02*
X-563833Y-2393236D01*
X-563833Y-2393236D02*
X-573357Y-2402760D01*
X-573357Y-2402760D02*
X-592404Y-2412284D01*
X-592404Y-2412284D02*
X-630499Y-2412284D01*
X-630499Y-2412284D02*
X-649547Y-2402760D01*
X-468595Y-2393236D02*
X-459071Y-2402760D01*
X-459071Y-2402760D02*
X-468595Y-2412284D01*
X-468595Y-2412284D02*
X-478118Y-2402760D01*
X-478118Y-2402760D02*
X-468595Y-2393236D01*
X-468595Y-2393236D02*
X-468595Y-2412284D01*
X-468595Y-2288474D02*
X-459071Y-2297998D01*
X-459071Y-2297998D02*
X-468595Y-2307522D01*
X-468595Y-2307522D02*
X-478118Y-2297998D01*
X-478118Y-2297998D02*
X-468595Y-2288474D01*
X-468595Y-2288474D02*
X-468595Y-2307522D01*
D11*
X-2130800Y-2725800D02*
X-2100800Y-2755800D01*
X-2100800Y-2725800D02*
X-2130800Y-2755800D01*
D10*
X-1801928Y-2632284D02*
X-1782880Y-2632284D01*
X-1782880Y-2632284D02*
X-1763833Y-2641808D01*
X-1763833Y-2641808D02*
X-1754309Y-2651331D01*
X-1754309Y-2651331D02*
X-1744785Y-2670379D01*
X-1744785Y-2670379D02*
X-1735261Y-2708474D01*
X-1735261Y-2708474D02*
X-1735261Y-2756093D01*
X-1735261Y-2756093D02*
X-1744785Y-2794189D01*
X-1744785Y-2794189D02*
X-1754309Y-2813236D01*
X-1754309Y-2813236D02*
X-1763833Y-2822760D01*
X-1763833Y-2822760D02*
X-1782880Y-2832284D01*
X-1782880Y-2832284D02*
X-1801928Y-2832284D01*
X-1801928Y-2832284D02*
X-1820976Y-2822760D01*
X-1820976Y-2822760D02*
X-1830499Y-2813236D01*
X-1830499Y-2813236D02*
X-1840023Y-2794189D01*
X-1840023Y-2794189D02*
X-1849547Y-2756093D01*
X-1849547Y-2756093D02*
X-1849547Y-2708474D01*
X-1849547Y-2708474D02*
X-1840023Y-2670379D01*
X-1840023Y-2670379D02*
X-1830499Y-2651331D01*
X-1830499Y-2651331D02*
X-1820976Y-2641808D01*
X-1820976Y-2641808D02*
X-1801928Y-2632284D01*
X-1649547Y-2813236D02*
X-1640023Y-2822760D01*
X-1640023Y-2822760D02*
X-1649547Y-2832284D01*
X-1649547Y-2832284D02*
X-1659071Y-2822760D01*
X-1659071Y-2822760D02*
X-1649547Y-2813236D01*
X-1649547Y-2813236D02*
X-1649547Y-2832284D01*
X-1573356Y-2632284D02*
X-1449547Y-2632284D01*
X-1449547Y-2632284D02*
X-1516214Y-2708474D01*
X-1516214Y-2708474D02*
X-1487642Y-2708474D01*
X-1487642Y-2708474D02*
X-1468595Y-2717998D01*
X-1468595Y-2717998D02*
X-1459071Y-2727522D01*
X-1459071Y-2727522D02*
X-1449547Y-2746570D01*
X-1449547Y-2746570D02*
X-1449547Y-2794189D01*
X-1449547Y-2794189D02*
X-1459071Y-2813236D01*
X-1459071Y-2813236D02*
X-1468595Y-2822760D01*
X-1468595Y-2822760D02*
X-1487642Y-2832284D01*
X-1487642Y-2832284D02*
X-1544785Y-2832284D01*
X-1544785Y-2832284D02*
X-1563833Y-2822760D01*
X-1563833Y-2822760D02*
X-1573356Y-2813236D01*
X-1325738Y-2632284D02*
X-1306690Y-2632284D01*
X-1306690Y-2632284D02*
X-1287642Y-2641808D01*
X-1287642Y-2641808D02*
X-1278118Y-2651331D01*
X-1278118Y-2651331D02*
X-1268595Y-2670379D01*
X-1268595Y-2670379D02*
X-1259071Y-2708474D01*
X-1259071Y-2708474D02*
X-1259071Y-2756093D01*
X-1259071Y-2756093D02*
X-1268595Y-2794189D01*
X-1268595Y-2794189D02*
X-1278118Y-2813236D01*
X-1278118Y-2813236D02*
X-1287642Y-2822760D01*
X-1287642Y-2822760D02*
X-1306690Y-2832284D01*
X-1306690Y-2832284D02*
X-1325738Y-2832284D01*
X-1325738Y-2832284D02*
X-1344785Y-2822760D01*
X-1344785Y-2822760D02*
X-1354309Y-2813236D01*
X-1354309Y-2813236D02*
X-1363833Y-2794189D01*
X-1363833Y-2794189D02*
X-1373357Y-2756093D01*
X-1373357Y-2756093D02*
X-1373357Y-2708474D01*
X-1373357Y-2708474D02*
X-1363833Y-2670379D01*
X-1363833Y-2670379D02*
X-1354309Y-2651331D01*
X-1354309Y-2651331D02*
X-1344785Y-2641808D01*
X-1344785Y-2641808D02*
X-1325738Y-2632284D01*
X-1135261Y-2632284D02*
X-1116214Y-2632284D01*
X-1116214Y-2632284D02*
X-1097166Y-2641808D01*
X-1097166Y-2641808D02*
X-1087642Y-2651331D01*
X-1087642Y-2651331D02*
X-1078118Y-2670379D01*
X-1078118Y-2670379D02*
X-1068595Y-2708474D01*
X-1068595Y-2708474D02*
X-1068595Y-2756093D01*
X-1068595Y-2756093D02*
X-1078118Y-2794189D01*
X-1078118Y-2794189D02*
X-1087642Y-2813236D01*
X-1087642Y-2813236D02*
X-1097166Y-2822760D01*
X-1097166Y-2822760D02*
X-1116214Y-2832284D01*
X-1116214Y-2832284D02*
X-1135261Y-2832284D01*
X-1135261Y-2832284D02*
X-1154309Y-2822760D01*
X-1154309Y-2822760D02*
X-1163833Y-2813236D01*
X-1163833Y-2813236D02*
X-1173357Y-2794189D01*
X-1173357Y-2794189D02*
X-1182880Y-2756093D01*
X-1182880Y-2756093D02*
X-1182880Y-2708474D01*
X-1182880Y-2708474D02*
X-1173357Y-2670379D01*
X-1173357Y-2670379D02*
X-1163833Y-2651331D01*
X-1163833Y-2651331D02*
X-1154309Y-2641808D01*
X-1154309Y-2641808D02*
X-1135261Y-2632284D01*
X-982880Y-2832284D02*
X-982880Y-2698950D01*
X-982880Y-2717998D02*
X-973356Y-2708474D01*
X-973356Y-2708474D02*
X-954309Y-2698950D01*
X-954309Y-2698950D02*
X-925737Y-2698950D01*
X-925737Y-2698950D02*
X-906690Y-2708474D01*
X-906690Y-2708474D02*
X-897166Y-2727522D01*
X-897166Y-2727522D02*
X-897166Y-2832284D01*
X-897166Y-2727522D02*
X-887642Y-2708474D01*
X-887642Y-2708474D02*
X-868595Y-2698950D01*
X-868595Y-2698950D02*
X-840023Y-2698950D01*
X-840023Y-2698950D02*
X-820975Y-2708474D01*
X-820975Y-2708474D02*
X-811452Y-2727522D01*
X-811452Y-2727522D02*
X-811452Y-2832284D01*
X-716214Y-2832284D02*
X-716214Y-2698950D01*
X-716214Y-2717998D02*
X-706690Y-2708474D01*
X-706690Y-2708474D02*
X-687642Y-2698950D01*
X-687642Y-2698950D02*
X-659071Y-2698950D01*
X-659071Y-2698950D02*
X-640023Y-2708474D01*
X-640023Y-2708474D02*
X-630499Y-2727522D01*
X-630499Y-2727522D02*
X-630499Y-2832284D01*
X-630499Y-2727522D02*
X-620976Y-2708474D01*
X-620976Y-2708474D02*
X-601928Y-2698950D01*
X-601928Y-2698950D02*
X-573357Y-2698950D01*
X-573357Y-2698950D02*
X-554309Y-2708474D01*
X-554309Y-2708474D02*
X-544785Y-2727522D01*
X-544785Y-2727522D02*
X-544785Y-2832284D01*
X-154309Y-2622760D02*
X-325737Y-2879903D01*
X102834Y-2632284D02*
X121882Y-2632284D01*
X121882Y-2632284D02*
X140929Y-2641808D01*
X140929Y-2641808D02*
X150453Y-2651331D01*
X150453Y-2651331D02*
X159977Y-2670379D01*
X159977Y-2670379D02*
X169501Y-2708474D01*
X169501Y-2708474D02*
X169501Y-2756093D01*
X169501Y-2756093D02*
X159977Y-2794189D01*
X159977Y-2794189D02*
X150453Y-2813236D01*
X150453Y-2813236D02*
X140929Y-2822760D01*
X140929Y-2822760D02*
X121882Y-2832284D01*
X121882Y-2832284D02*
X102834Y-2832284D01*
X102834Y-2832284D02*
X83787Y-2822760D01*
X83787Y-2822760D02*
X74263Y-2813236D01*
X74263Y-2813236D02*
X64739Y-2794189D01*
X64739Y-2794189D02*
X55215Y-2756093D01*
X55215Y-2756093D02*
X55215Y-2708474D01*
X55215Y-2708474D02*
X64739Y-2670379D01*
X64739Y-2670379D02*
X74263Y-2651331D01*
X74263Y-2651331D02*
X83787Y-2641808D01*
X83787Y-2641808D02*
X102834Y-2632284D01*
X255215Y-2813236D02*
X264739Y-2822760D01*
X264739Y-2822760D02*
X255215Y-2832284D01*
X255215Y-2832284D02*
X245691Y-2822760D01*
X245691Y-2822760D02*
X255215Y-2813236D01*
X255215Y-2813236D02*
X255215Y-2832284D01*
X388548Y-2632284D02*
X407596Y-2632284D01*
X407596Y-2632284D02*
X426644Y-2641808D01*
X426644Y-2641808D02*
X436167Y-2651331D01*
X436167Y-2651331D02*
X445691Y-2670379D01*
X445691Y-2670379D02*
X455215Y-2708474D01*
X455215Y-2708474D02*
X455215Y-2756093D01*
X455215Y-2756093D02*
X445691Y-2794189D01*
X445691Y-2794189D02*
X436167Y-2813236D01*
X436167Y-2813236D02*
X426644Y-2822760D01*
X426644Y-2822760D02*
X407596Y-2832284D01*
X407596Y-2832284D02*
X388548Y-2832284D01*
X388548Y-2832284D02*
X369501Y-2822760D01*
X369501Y-2822760D02*
X359977Y-2813236D01*
X359977Y-2813236D02*
X350453Y-2794189D01*
X350453Y-2794189D02*
X340929Y-2756093D01*
X340929Y-2756093D02*
X340929Y-2708474D01*
X340929Y-2708474D02*
X350453Y-2670379D01*
X350453Y-2670379D02*
X359977Y-2651331D01*
X359977Y-2651331D02*
X369501Y-2641808D01*
X369501Y-2641808D02*
X388548Y-2632284D01*
X645691Y-2832284D02*
X531406Y-2832284D01*
X588548Y-2832284D02*
X588548Y-2632284D01*
X588548Y-2632284D02*
X569501Y-2660855D01*
X569501Y-2660855D02*
X550453Y-2679903D01*
X550453Y-2679903D02*
X531406Y-2689427D01*
X836167Y-2832284D02*
X721882Y-2832284D01*
X779025Y-2832284D02*
X779025Y-2632284D01*
X779025Y-2632284D02*
X759977Y-2660855D01*
X759977Y-2660855D02*
X740929Y-2679903D01*
X740929Y-2679903D02*
X721882Y-2689427D01*
X950453Y-2717998D02*
X931406Y-2708474D01*
X931406Y-2708474D02*
X921882Y-2698950D01*
X921882Y-2698950D02*
X912358Y-2679903D01*
X912358Y-2679903D02*
X912358Y-2670379D01*
X912358Y-2670379D02*
X921882Y-2651331D01*
X921882Y-2651331D02*
X931406Y-2641808D01*
X931406Y-2641808D02*
X950453Y-2632284D01*
X950453Y-2632284D02*
X988548Y-2632284D01*
X988548Y-2632284D02*
X1007596Y-2641808D01*
X1007596Y-2641808D02*
X1017120Y-2651331D01*
X1017120Y-2651331D02*
X1026644Y-2670379D01*
X1026644Y-2670379D02*
X1026644Y-2679903D01*
X1026644Y-2679903D02*
X1017120Y-2698950D01*
X1017120Y-2698950D02*
X1007596Y-2708474D01*
X1007596Y-2708474D02*
X988548Y-2717998D01*
X988548Y-2717998D02*
X950453Y-2717998D01*
X950453Y-2717998D02*
X931406Y-2727522D01*
X931406Y-2727522D02*
X921882Y-2737046D01*
X921882Y-2737046D02*
X912358Y-2756093D01*
X912358Y-2756093D02*
X912358Y-2794189D01*
X912358Y-2794189D02*
X921882Y-2813236D01*
X921882Y-2813236D02*
X931406Y-2822760D01*
X931406Y-2822760D02*
X950453Y-2832284D01*
X950453Y-2832284D02*
X988548Y-2832284D01*
X988548Y-2832284D02*
X1007596Y-2822760D01*
X1007596Y-2822760D02*
X1017120Y-2813236D01*
X1017120Y-2813236D02*
X1026644Y-2794189D01*
X1026644Y-2794189D02*
X1026644Y-2756093D01*
X1026644Y-2756093D02*
X1017120Y-2737046D01*
X1017120Y-2737046D02*
X1007596Y-2727522D01*
X1007596Y-2727522D02*
X988548Y-2717998D01*
X1102834Y-2632284D02*
X1102834Y-2670379D01*
X1179025Y-2632284D02*
X1179025Y-2670379D01*
X1474263Y-2908474D02*
X1464739Y-2898950D01*
X1464739Y-2898950D02*
X1445691Y-2870379D01*
X1445691Y-2870379D02*
X1436168Y-2851331D01*
X1436168Y-2851331D02*
X1426644Y-2822760D01*
X1426644Y-2822760D02*
X1417120Y-2775141D01*
X1417120Y-2775141D02*
X1417120Y-2737046D01*
X1417120Y-2737046D02*
X1426644Y-2689427D01*
X1426644Y-2689427D02*
X1436168Y-2660855D01*
X1436168Y-2660855D02*
X1445691Y-2641808D01*
X1445691Y-2641808D02*
X1464739Y-2613236D01*
X1464739Y-2613236D02*
X1474263Y-2603712D01*
X1636168Y-2698950D02*
X1636168Y-2832284D01*
X1588548Y-2622760D02*
X1540929Y-2765617D01*
X1540929Y-2765617D02*
X1664739Y-2765617D01*
X1893310Y-2832284D02*
X1893310Y-2632284D01*
X1979025Y-2832284D02*
X1979025Y-2727522D01*
X1979025Y-2727522D02*
X1969501Y-2708474D01*
X1969501Y-2708474D02*
X1950453Y-2698950D01*
X1950453Y-2698950D02*
X1921882Y-2698950D01*
X1921882Y-2698950D02*
X1902834Y-2708474D01*
X1902834Y-2708474D02*
X1893310Y-2717998D01*
X2102834Y-2832284D02*
X2083787Y-2822760D01*
X2083787Y-2822760D02*
X2074263Y-2813236D01*
X2074263Y-2813236D02*
X2064739Y-2794189D01*
X2064739Y-2794189D02*
X2064739Y-2737046D01*
X2064739Y-2737046D02*
X2074263Y-2717998D01*
X2074263Y-2717998D02*
X2083787Y-2708474D01*
X2083787Y-2708474D02*
X2102834Y-2698950D01*
X2102834Y-2698950D02*
X2131406Y-2698950D01*
X2131406Y-2698950D02*
X2150453Y-2708474D01*
X2150453Y-2708474D02*
X2159977Y-2717998D01*
X2159977Y-2717998D02*
X2169501Y-2737046D01*
X2169501Y-2737046D02*
X2169501Y-2794189D01*
X2169501Y-2794189D02*
X2159977Y-2813236D01*
X2159977Y-2813236D02*
X2150453Y-2822760D01*
X2150453Y-2822760D02*
X2131406Y-2832284D01*
X2131406Y-2832284D02*
X2102834Y-2832284D01*
X2283787Y-2832284D02*
X2264739Y-2822760D01*
X2264739Y-2822760D02*
X2255215Y-2803712D01*
X2255215Y-2803712D02*
X2255215Y-2632284D01*
X2436168Y-2822760D02*
X2417120Y-2832284D01*
X2417120Y-2832284D02*
X2379025Y-2832284D01*
X2379025Y-2832284D02*
X2359977Y-2822760D01*
X2359977Y-2822760D02*
X2350453Y-2803712D01*
X2350453Y-2803712D02*
X2350453Y-2727522D01*
X2350453Y-2727522D02*
X2359977Y-2708474D01*
X2359977Y-2708474D02*
X2379025Y-2698950D01*
X2379025Y-2698950D02*
X2417120Y-2698950D01*
X2417120Y-2698950D02*
X2436168Y-2708474D01*
X2436168Y-2708474D02*
X2445692Y-2727522D01*
X2445692Y-2727522D02*
X2445692Y-2746570D01*
X2445692Y-2746570D02*
X2350453Y-2765617D01*
X2521882Y-2822760D02*
X2540930Y-2832284D01*
X2540930Y-2832284D02*
X2579025Y-2832284D01*
X2579025Y-2832284D02*
X2598073Y-2822760D01*
X2598073Y-2822760D02*
X2607596Y-2803712D01*
X2607596Y-2803712D02*
X2607596Y-2794189D01*
X2607596Y-2794189D02*
X2598073Y-2775141D01*
X2598073Y-2775141D02*
X2579025Y-2765617D01*
X2579025Y-2765617D02*
X2550453Y-2765617D01*
X2550453Y-2765617D02*
X2531406Y-2756093D01*
X2531406Y-2756093D02*
X2521882Y-2737046D01*
X2521882Y-2737046D02*
X2521882Y-2727522D01*
X2521882Y-2727522D02*
X2531406Y-2708474D01*
X2531406Y-2708474D02*
X2550453Y-2698950D01*
X2550453Y-2698950D02*
X2579025Y-2698950D01*
X2579025Y-2698950D02*
X2598073Y-2708474D01*
X2674263Y-2908474D02*
X2683787Y-2898950D01*
X2683787Y-2898950D02*
X2702834Y-2870379D01*
X2702834Y-2870379D02*
X2712358Y-2851331D01*
X2712358Y-2851331D02*
X2721882Y-2822760D01*
X2721882Y-2822760D02*
X2731406Y-2775141D01*
X2731406Y-2775141D02*
X2731406Y-2737046D01*
X2731406Y-2737046D02*
X2721882Y-2689427D01*
X2721882Y-2689427D02*
X2712358Y-2660855D01*
X2712358Y-2660855D02*
X2702834Y-2641808D01*
X2702834Y-2641808D02*
X2683787Y-2613236D01*
X2683787Y-2613236D02*
X2674263Y-2603712D01*
D11*
X-2100800Y-3004800D02*
G75*
G03*
X-2100800Y-3004800I-20000J0D01*
G01*
D10*
X-1801928Y-2896284D02*
X-1782880Y-2896284D01*
X-1782880Y-2896284D02*
X-1763833Y-2905808D01*
X-1763833Y-2905808D02*
X-1754309Y-2915331D01*
X-1754309Y-2915331D02*
X-1744785Y-2934379D01*
X-1744785Y-2934379D02*
X-1735261Y-2972474D01*
X-1735261Y-2972474D02*
X-1735261Y-3020093D01*
X-1735261Y-3020093D02*
X-1744785Y-3058188D01*
X-1744785Y-3058188D02*
X-1754309Y-3077236D01*
X-1754309Y-3077236D02*
X-1763833Y-3086760D01*
X-1763833Y-3086760D02*
X-1782880Y-3096284D01*
X-1782880Y-3096284D02*
X-1801928Y-3096284D01*
X-1801928Y-3096284D02*
X-1820976Y-3086760D01*
X-1820976Y-3086760D02*
X-1830499Y-3077236D01*
X-1830499Y-3077236D02*
X-1840023Y-3058188D01*
X-1840023Y-3058188D02*
X-1849547Y-3020093D01*
X-1849547Y-3020093D02*
X-1849547Y-2972474D01*
X-1849547Y-2972474D02*
X-1840023Y-2934379D01*
X-1840023Y-2934379D02*
X-1830499Y-2915331D01*
X-1830499Y-2915331D02*
X-1820976Y-2905808D01*
X-1820976Y-2905808D02*
X-1801928Y-2896284D01*
X-1649547Y-3077236D02*
X-1640023Y-3086760D01*
X-1640023Y-3086760D02*
X-1649547Y-3096284D01*
X-1649547Y-3096284D02*
X-1659071Y-3086760D01*
X-1659071Y-3086760D02*
X-1649547Y-3077236D01*
X-1649547Y-3077236D02*
X-1649547Y-3096284D01*
X-1468595Y-2962950D02*
X-1468595Y-3096284D01*
X-1516214Y-2886760D02*
X-1563833Y-3029617D01*
X-1563833Y-3029617D02*
X-1440023Y-3029617D01*
X-1325738Y-2896284D02*
X-1306690Y-2896284D01*
X-1306690Y-2896284D02*
X-1287642Y-2905808D01*
X-1287642Y-2905808D02*
X-1278118Y-2915331D01*
X-1278118Y-2915331D02*
X-1268595Y-2934379D01*
X-1268595Y-2934379D02*
X-1259071Y-2972474D01*
X-1259071Y-2972474D02*
X-1259071Y-3020093D01*
X-1259071Y-3020093D02*
X-1268595Y-3058188D01*
X-1268595Y-3058188D02*
X-1278118Y-3077236D01*
X-1278118Y-3077236D02*
X-1287642Y-3086760D01*
X-1287642Y-3086760D02*
X-1306690Y-3096284D01*
X-1306690Y-3096284D02*
X-1325738Y-3096284D01*
X-1325738Y-3096284D02*
X-1344785Y-3086760D01*
X-1344785Y-3086760D02*
X-1354309Y-3077236D01*
X-1354309Y-3077236D02*
X-1363833Y-3058188D01*
X-1363833Y-3058188D02*
X-1373357Y-3020093D01*
X-1373357Y-3020093D02*
X-1373357Y-2972474D01*
X-1373357Y-2972474D02*
X-1363833Y-2934379D01*
X-1363833Y-2934379D02*
X-1354309Y-2915331D01*
X-1354309Y-2915331D02*
X-1344785Y-2905808D01*
X-1344785Y-2905808D02*
X-1325738Y-2896284D01*
X-1135261Y-2896284D02*
X-1116214Y-2896284D01*
X-1116214Y-2896284D02*
X-1097166Y-2905808D01*
X-1097166Y-2905808D02*
X-1087642Y-2915331D01*
X-1087642Y-2915331D02*
X-1078118Y-2934379D01*
X-1078118Y-2934379D02*
X-1068595Y-2972474D01*
X-1068595Y-2972474D02*
X-1068595Y-3020093D01*
X-1068595Y-3020093D02*
X-1078118Y-3058188D01*
X-1078118Y-3058188D02*
X-1087642Y-3077236D01*
X-1087642Y-3077236D02*
X-1097166Y-3086760D01*
X-1097166Y-3086760D02*
X-1116214Y-3096284D01*
X-1116214Y-3096284D02*
X-1135261Y-3096284D01*
X-1135261Y-3096284D02*
X-1154309Y-3086760D01*
X-1154309Y-3086760D02*
X-1163833Y-3077236D01*
X-1163833Y-3077236D02*
X-1173357Y-3058188D01*
X-1173357Y-3058188D02*
X-1182880Y-3020093D01*
X-1182880Y-3020093D02*
X-1182880Y-2972474D01*
X-1182880Y-2972474D02*
X-1173357Y-2934379D01*
X-1173357Y-2934379D02*
X-1163833Y-2915331D01*
X-1163833Y-2915331D02*
X-1154309Y-2905808D01*
X-1154309Y-2905808D02*
X-1135261Y-2896284D01*
X-982880Y-3096284D02*
X-982880Y-2962950D01*
X-982880Y-2981998D02*
X-973356Y-2972474D01*
X-973356Y-2972474D02*
X-954309Y-2962950D01*
X-954309Y-2962950D02*
X-925737Y-2962950D01*
X-925737Y-2962950D02*
X-906690Y-2972474D01*
X-906690Y-2972474D02*
X-897166Y-2991522D01*
X-897166Y-2991522D02*
X-897166Y-3096284D01*
X-897166Y-2991522D02*
X-887642Y-2972474D01*
X-887642Y-2972474D02*
X-868595Y-2962950D01*
X-868595Y-2962950D02*
X-840023Y-2962950D01*
X-840023Y-2962950D02*
X-820975Y-2972474D01*
X-820975Y-2972474D02*
X-811452Y-2991522D01*
X-811452Y-2991522D02*
X-811452Y-3096284D01*
X-716214Y-3096284D02*
X-716214Y-2962950D01*
X-716214Y-2981998D02*
X-706690Y-2972474D01*
X-706690Y-2972474D02*
X-687642Y-2962950D01*
X-687642Y-2962950D02*
X-659071Y-2962950D01*
X-659071Y-2962950D02*
X-640023Y-2972474D01*
X-640023Y-2972474D02*
X-630499Y-2991522D01*
X-630499Y-2991522D02*
X-630499Y-3096284D01*
X-630499Y-2991522D02*
X-620976Y-2972474D01*
X-620976Y-2972474D02*
X-601928Y-2962950D01*
X-601928Y-2962950D02*
X-573357Y-2962950D01*
X-573357Y-2962950D02*
X-554309Y-2972474D01*
X-554309Y-2972474D02*
X-544785Y-2991522D01*
X-544785Y-2991522D02*
X-544785Y-3096284D01*
X-154309Y-2886760D02*
X-325737Y-3143903D01*
X102834Y-2896284D02*
X121882Y-2896284D01*
X121882Y-2896284D02*
X140929Y-2905808D01*
X140929Y-2905808D02*
X150453Y-2915331D01*
X150453Y-2915331D02*
X159977Y-2934379D01*
X159977Y-2934379D02*
X169501Y-2972474D01*
X169501Y-2972474D02*
X169501Y-3020093D01*
X169501Y-3020093D02*
X159977Y-3058188D01*
X159977Y-3058188D02*
X150453Y-3077236D01*
X150453Y-3077236D02*
X140929Y-3086760D01*
X140929Y-3086760D02*
X121882Y-3096284D01*
X121882Y-3096284D02*
X102834Y-3096284D01*
X102834Y-3096284D02*
X83787Y-3086760D01*
X83787Y-3086760D02*
X74263Y-3077236D01*
X74263Y-3077236D02*
X64739Y-3058188D01*
X64739Y-3058188D02*
X55215Y-3020093D01*
X55215Y-3020093D02*
X55215Y-2972474D01*
X55215Y-2972474D02*
X64739Y-2934379D01*
X64739Y-2934379D02*
X74263Y-2915331D01*
X74263Y-2915331D02*
X83787Y-2905808D01*
X83787Y-2905808D02*
X102834Y-2896284D01*
X255215Y-3077236D02*
X264739Y-3086760D01*
X264739Y-3086760D02*
X255215Y-3096284D01*
X255215Y-3096284D02*
X245691Y-3086760D01*
X245691Y-3086760D02*
X255215Y-3077236D01*
X255215Y-3077236D02*
X255215Y-3096284D01*
X388548Y-2896284D02*
X407596Y-2896284D01*
X407596Y-2896284D02*
X426644Y-2905808D01*
X426644Y-2905808D02*
X436167Y-2915331D01*
X436167Y-2915331D02*
X445691Y-2934379D01*
X445691Y-2934379D02*
X455215Y-2972474D01*
X455215Y-2972474D02*
X455215Y-3020093D01*
X455215Y-3020093D02*
X445691Y-3058188D01*
X445691Y-3058188D02*
X436167Y-3077236D01*
X436167Y-3077236D02*
X426644Y-3086760D01*
X426644Y-3086760D02*
X407596Y-3096284D01*
X407596Y-3096284D02*
X388548Y-3096284D01*
X388548Y-3096284D02*
X369501Y-3086760D01*
X369501Y-3086760D02*
X359977Y-3077236D01*
X359977Y-3077236D02*
X350453Y-3058188D01*
X350453Y-3058188D02*
X340929Y-3020093D01*
X340929Y-3020093D02*
X340929Y-2972474D01*
X340929Y-2972474D02*
X350453Y-2934379D01*
X350453Y-2934379D02*
X359977Y-2915331D01*
X359977Y-2915331D02*
X369501Y-2905808D01*
X369501Y-2905808D02*
X388548Y-2896284D01*
X645691Y-3096284D02*
X531406Y-3096284D01*
X588548Y-3096284D02*
X588548Y-2896284D01*
X588548Y-2896284D02*
X569501Y-2924855D01*
X569501Y-2924855D02*
X550453Y-2943903D01*
X550453Y-2943903D02*
X531406Y-2953427D01*
X826644Y-2896284D02*
X731406Y-2896284D01*
X731406Y-2896284D02*
X721882Y-2991522D01*
X721882Y-2991522D02*
X731406Y-2981998D01*
X731406Y-2981998D02*
X750453Y-2972474D01*
X750453Y-2972474D02*
X798072Y-2972474D01*
X798072Y-2972474D02*
X817120Y-2981998D01*
X817120Y-2981998D02*
X826644Y-2991522D01*
X826644Y-2991522D02*
X836167Y-3010569D01*
X836167Y-3010569D02*
X836167Y-3058188D01*
X836167Y-3058188D02*
X826644Y-3077236D01*
X826644Y-3077236D02*
X817120Y-3086760D01*
X817120Y-3086760D02*
X798072Y-3096284D01*
X798072Y-3096284D02*
X750453Y-3096284D01*
X750453Y-3096284D02*
X731406Y-3086760D01*
X731406Y-3086760D02*
X721882Y-3077236D01*
X902834Y-2896284D02*
X1036167Y-2896284D01*
X1036167Y-2896284D02*
X950453Y-3096284D01*
X1102834Y-2896284D02*
X1102834Y-2934379D01*
X1179025Y-2896284D02*
X1179025Y-2934379D01*
X1474263Y-3172474D02*
X1464739Y-3162950D01*
X1464739Y-3162950D02*
X1445691Y-3134379D01*
X1445691Y-3134379D02*
X1436168Y-3115331D01*
X1436168Y-3115331D02*
X1426644Y-3086760D01*
X1426644Y-3086760D02*
X1417120Y-3039141D01*
X1417120Y-3039141D02*
X1417120Y-3001046D01*
X1417120Y-3001046D02*
X1426644Y-2953427D01*
X1426644Y-2953427D02*
X1436168Y-2924855D01*
X1436168Y-2924855D02*
X1445691Y-2905808D01*
X1445691Y-2905808D02*
X1464739Y-2877236D01*
X1464739Y-2877236D02*
X1474263Y-2867712D01*
X1531406Y-2896284D02*
X1664739Y-2896284D01*
X1664739Y-2896284D02*
X1579025Y-3096284D01*
X1893310Y-3096284D02*
X1893310Y-2896284D01*
X1979025Y-3096284D02*
X1979025Y-2991522D01*
X1979025Y-2991522D02*
X1969501Y-2972474D01*
X1969501Y-2972474D02*
X1950453Y-2962950D01*
X1950453Y-2962950D02*
X1921882Y-2962950D01*
X1921882Y-2962950D02*
X1902834Y-2972474D01*
X1902834Y-2972474D02*
X1893310Y-2981998D01*
X2102834Y-3096284D02*
X2083787Y-3086760D01*
X2083787Y-3086760D02*
X2074263Y-3077236D01*
X2074263Y-3077236D02*
X2064739Y-3058188D01*
X2064739Y-3058188D02*
X2064739Y-3001046D01*
X2064739Y-3001046D02*
X2074263Y-2981998D01*
X2074263Y-2981998D02*
X2083787Y-2972474D01*
X2083787Y-2972474D02*
X2102834Y-2962950D01*
X2102834Y-2962950D02*
X2131406Y-2962950D01*
X2131406Y-2962950D02*
X2150453Y-2972474D01*
X2150453Y-2972474D02*
X2159977Y-2981998D01*
X2159977Y-2981998D02*
X2169501Y-3001046D01*
X2169501Y-3001046D02*
X2169501Y-3058188D01*
X2169501Y-3058188D02*
X2159977Y-3077236D01*
X2159977Y-3077236D02*
X2150453Y-3086760D01*
X2150453Y-3086760D02*
X2131406Y-3096284D01*
X2131406Y-3096284D02*
X2102834Y-3096284D01*
X2283787Y-3096284D02*
X2264739Y-3086760D01*
X2264739Y-3086760D02*
X2255215Y-3067712D01*
X2255215Y-3067712D02*
X2255215Y-2896284D01*
X2436168Y-3086760D02*
X2417120Y-3096284D01*
X2417120Y-3096284D02*
X2379025Y-3096284D01*
X2379025Y-3096284D02*
X2359977Y-3086760D01*
X2359977Y-3086760D02*
X2350453Y-3067712D01*
X2350453Y-3067712D02*
X2350453Y-2991522D01*
X2350453Y-2991522D02*
X2359977Y-2972474D01*
X2359977Y-2972474D02*
X2379025Y-2962950D01*
X2379025Y-2962950D02*
X2417120Y-2962950D01*
X2417120Y-2962950D02*
X2436168Y-2972474D01*
X2436168Y-2972474D02*
X2445692Y-2991522D01*
X2445692Y-2991522D02*
X2445692Y-3010569D01*
X2445692Y-3010569D02*
X2350453Y-3029617D01*
X2521882Y-3086760D02*
X2540930Y-3096284D01*
X2540930Y-3096284D02*
X2579025Y-3096284D01*
X2579025Y-3096284D02*
X2598073Y-3086760D01*
X2598073Y-3086760D02*
X2607596Y-3067712D01*
X2607596Y-3067712D02*
X2607596Y-3058188D01*
X2607596Y-3058188D02*
X2598073Y-3039141D01*
X2598073Y-3039141D02*
X2579025Y-3029617D01*
X2579025Y-3029617D02*
X2550453Y-3029617D01*
X2550453Y-3029617D02*
X2531406Y-3020093D01*
X2531406Y-3020093D02*
X2521882Y-3001046D01*
X2521882Y-3001046D02*
X2521882Y-2991522D01*
X2521882Y-2991522D02*
X2531406Y-2972474D01*
X2531406Y-2972474D02*
X2550453Y-2962950D01*
X2550453Y-2962950D02*
X2579025Y-2962950D01*
X2579025Y-2962950D02*
X2598073Y-2972474D01*
X2674263Y-3172474D02*
X2683787Y-3162950D01*
X2683787Y-3162950D02*
X2702834Y-3134379D01*
X2702834Y-3134379D02*
X2712358Y-3115331D01*
X2712358Y-3115331D02*
X2721882Y-3086760D01*
X2721882Y-3086760D02*
X2731406Y-3039141D01*
X2731406Y-3039141D02*
X2731406Y-3001046D01*
X2731406Y-3001046D02*
X2721882Y-2953427D01*
X2721882Y-2953427D02*
X2712358Y-2924855D01*
X2712358Y-2924855D02*
X2702834Y-2905808D01*
X2702834Y-2905808D02*
X2683787Y-2877236D01*
X2683787Y-2877236D02*
X2674263Y-2867712D01*
X-2200800Y-3168800D02*
X-2200800Y-3368800D01*
X-2300800Y-3268800D02*
X-2100800Y-3268800D01*
X-1859071Y-3160284D02*
X-1735261Y-3160284D01*
X-1735261Y-3160284D02*
X-1801928Y-3236474D01*
X-1801928Y-3236474D02*
X-1773356Y-3236474D01*
X-1773356Y-3236474D02*
X-1754309Y-3245998D01*
X-1754309Y-3245998D02*
X-1744785Y-3255522D01*
X-1744785Y-3255522D02*
X-1735261Y-3274569D01*
X-1735261Y-3274569D02*
X-1735261Y-3322188D01*
X-1735261Y-3322188D02*
X-1744785Y-3341236D01*
X-1744785Y-3341236D02*
X-1754309Y-3350760D01*
X-1754309Y-3350760D02*
X-1773356Y-3360284D01*
X-1773356Y-3360284D02*
X-1830499Y-3360284D01*
X-1830499Y-3360284D02*
X-1849547Y-3350760D01*
X-1849547Y-3350760D02*
X-1859071Y-3341236D01*
X-1649547Y-3341236D02*
X-1640023Y-3350760D01*
X-1640023Y-3350760D02*
X-1649547Y-3360284D01*
X-1649547Y-3360284D02*
X-1659071Y-3350760D01*
X-1659071Y-3350760D02*
X-1649547Y-3341236D01*
X-1649547Y-3341236D02*
X-1649547Y-3360284D01*
X-1449547Y-3360284D02*
X-1563833Y-3360284D01*
X-1506690Y-3360284D02*
X-1506690Y-3160284D01*
X-1506690Y-3160284D02*
X-1525737Y-3188855D01*
X-1525737Y-3188855D02*
X-1544785Y-3207903D01*
X-1544785Y-3207903D02*
X-1563833Y-3217427D01*
X-1325738Y-3160284D02*
X-1306690Y-3160284D01*
X-1306690Y-3160284D02*
X-1287642Y-3169808D01*
X-1287642Y-3169808D02*
X-1278118Y-3179331D01*
X-1278118Y-3179331D02*
X-1268595Y-3198379D01*
X-1268595Y-3198379D02*
X-1259071Y-3236474D01*
X-1259071Y-3236474D02*
X-1259071Y-3284093D01*
X-1259071Y-3284093D02*
X-1268595Y-3322188D01*
X-1268595Y-3322188D02*
X-1278118Y-3341236D01*
X-1278118Y-3341236D02*
X-1287642Y-3350760D01*
X-1287642Y-3350760D02*
X-1306690Y-3360284D01*
X-1306690Y-3360284D02*
X-1325738Y-3360284D01*
X-1325738Y-3360284D02*
X-1344785Y-3350760D01*
X-1344785Y-3350760D02*
X-1354309Y-3341236D01*
X-1354309Y-3341236D02*
X-1363833Y-3322188D01*
X-1363833Y-3322188D02*
X-1373357Y-3284093D01*
X-1373357Y-3284093D02*
X-1373357Y-3236474D01*
X-1373357Y-3236474D02*
X-1363833Y-3198379D01*
X-1363833Y-3198379D02*
X-1354309Y-3179331D01*
X-1354309Y-3179331D02*
X-1344785Y-3169808D01*
X-1344785Y-3169808D02*
X-1325738Y-3160284D01*
X-1135261Y-3160284D02*
X-1116214Y-3160284D01*
X-1116214Y-3160284D02*
X-1097166Y-3169808D01*
X-1097166Y-3169808D02*
X-1087642Y-3179331D01*
X-1087642Y-3179331D02*
X-1078118Y-3198379D01*
X-1078118Y-3198379D02*
X-1068595Y-3236474D01*
X-1068595Y-3236474D02*
X-1068595Y-3284093D01*
X-1068595Y-3284093D02*
X-1078118Y-3322188D01*
X-1078118Y-3322188D02*
X-1087642Y-3341236D01*
X-1087642Y-3341236D02*
X-1097166Y-3350760D01*
X-1097166Y-3350760D02*
X-1116214Y-3360284D01*
X-1116214Y-3360284D02*
X-1135261Y-3360284D01*
X-1135261Y-3360284D02*
X-1154309Y-3350760D01*
X-1154309Y-3350760D02*
X-1163833Y-3341236D01*
X-1163833Y-3341236D02*
X-1173357Y-3322188D01*
X-1173357Y-3322188D02*
X-1182880Y-3284093D01*
X-1182880Y-3284093D02*
X-1182880Y-3236474D01*
X-1182880Y-3236474D02*
X-1173357Y-3198379D01*
X-1173357Y-3198379D02*
X-1163833Y-3179331D01*
X-1163833Y-3179331D02*
X-1154309Y-3169808D01*
X-1154309Y-3169808D02*
X-1135261Y-3160284D01*
X-982880Y-3360284D02*
X-982880Y-3226950D01*
X-982880Y-3245998D02*
X-973356Y-3236474D01*
X-973356Y-3236474D02*
X-954309Y-3226950D01*
X-954309Y-3226950D02*
X-925737Y-3226950D01*
X-925737Y-3226950D02*
X-906690Y-3236474D01*
X-906690Y-3236474D02*
X-897166Y-3255522D01*
X-897166Y-3255522D02*
X-897166Y-3360284D01*
X-897166Y-3255522D02*
X-887642Y-3236474D01*
X-887642Y-3236474D02*
X-868595Y-3226950D01*
X-868595Y-3226950D02*
X-840023Y-3226950D01*
X-840023Y-3226950D02*
X-820975Y-3236474D01*
X-820975Y-3236474D02*
X-811452Y-3255522D01*
X-811452Y-3255522D02*
X-811452Y-3360284D01*
X-716214Y-3360284D02*
X-716214Y-3226950D01*
X-716214Y-3245998D02*
X-706690Y-3236474D01*
X-706690Y-3236474D02*
X-687642Y-3226950D01*
X-687642Y-3226950D02*
X-659071Y-3226950D01*
X-659071Y-3226950D02*
X-640023Y-3236474D01*
X-640023Y-3236474D02*
X-630499Y-3255522D01*
X-630499Y-3255522D02*
X-630499Y-3360284D01*
X-630499Y-3255522D02*
X-620976Y-3236474D01*
X-620976Y-3236474D02*
X-601928Y-3226950D01*
X-601928Y-3226950D02*
X-573357Y-3226950D01*
X-573357Y-3226950D02*
X-554309Y-3236474D01*
X-554309Y-3236474D02*
X-544785Y-3255522D01*
X-544785Y-3255522D02*
X-544785Y-3360284D01*
X-154309Y-3150760D02*
X-325737Y-3407903D01*
X102834Y-3160284D02*
X121882Y-3160284D01*
X121882Y-3160284D02*
X140929Y-3169808D01*
X140929Y-3169808D02*
X150453Y-3179331D01*
X150453Y-3179331D02*
X159977Y-3198379D01*
X159977Y-3198379D02*
X169501Y-3236474D01*
X169501Y-3236474D02*
X169501Y-3284093D01*
X169501Y-3284093D02*
X159977Y-3322188D01*
X159977Y-3322188D02*
X150453Y-3341236D01*
X150453Y-3341236D02*
X140929Y-3350760D01*
X140929Y-3350760D02*
X121882Y-3360284D01*
X121882Y-3360284D02*
X102834Y-3360284D01*
X102834Y-3360284D02*
X83787Y-3350760D01*
X83787Y-3350760D02*
X74263Y-3341236D01*
X74263Y-3341236D02*
X64739Y-3322188D01*
X64739Y-3322188D02*
X55215Y-3284093D01*
X55215Y-3284093D02*
X55215Y-3236474D01*
X55215Y-3236474D02*
X64739Y-3198379D01*
X64739Y-3198379D02*
X74263Y-3179331D01*
X74263Y-3179331D02*
X83787Y-3169808D01*
X83787Y-3169808D02*
X102834Y-3160284D01*
X255215Y-3341236D02*
X264739Y-3350760D01*
X264739Y-3350760D02*
X255215Y-3360284D01*
X255215Y-3360284D02*
X245691Y-3350760D01*
X245691Y-3350760D02*
X255215Y-3341236D01*
X255215Y-3341236D02*
X255215Y-3360284D01*
X455215Y-3360284D02*
X340929Y-3360284D01*
X398072Y-3360284D02*
X398072Y-3160284D01*
X398072Y-3160284D02*
X379025Y-3188855D01*
X379025Y-3188855D02*
X359977Y-3207903D01*
X359977Y-3207903D02*
X340929Y-3217427D01*
X531406Y-3179331D02*
X540929Y-3169808D01*
X540929Y-3169808D02*
X559977Y-3160284D01*
X559977Y-3160284D02*
X607596Y-3160284D01*
X607596Y-3160284D02*
X626644Y-3169808D01*
X626644Y-3169808D02*
X636168Y-3179331D01*
X636168Y-3179331D02*
X645691Y-3198379D01*
X645691Y-3198379D02*
X645691Y-3217427D01*
X645691Y-3217427D02*
X636168Y-3245998D01*
X636168Y-3245998D02*
X521882Y-3360284D01*
X521882Y-3360284D02*
X645691Y-3360284D01*
X721882Y-3179331D02*
X731406Y-3169808D01*
X731406Y-3169808D02*
X750453Y-3160284D01*
X750453Y-3160284D02*
X798072Y-3160284D01*
X798072Y-3160284D02*
X817120Y-3169808D01*
X817120Y-3169808D02*
X826644Y-3179331D01*
X826644Y-3179331D02*
X836167Y-3198379D01*
X836167Y-3198379D02*
X836167Y-3217427D01*
X836167Y-3217427D02*
X826644Y-3245998D01*
X826644Y-3245998D02*
X712358Y-3360284D01*
X712358Y-3360284D02*
X836167Y-3360284D01*
X959977Y-3160284D02*
X979025Y-3160284D01*
X979025Y-3160284D02*
X998072Y-3169808D01*
X998072Y-3169808D02*
X1007596Y-3179331D01*
X1007596Y-3179331D02*
X1017120Y-3198379D01*
X1017120Y-3198379D02*
X1026644Y-3236474D01*
X1026644Y-3236474D02*
X1026644Y-3284093D01*
X1026644Y-3284093D02*
X1017120Y-3322188D01*
X1017120Y-3322188D02*
X1007596Y-3341236D01*
X1007596Y-3341236D02*
X998072Y-3350760D01*
X998072Y-3350760D02*
X979025Y-3360284D01*
X979025Y-3360284D02*
X959977Y-3360284D01*
X959977Y-3360284D02*
X940929Y-3350760D01*
X940929Y-3350760D02*
X931406Y-3341236D01*
X931406Y-3341236D02*
X921882Y-3322188D01*
X921882Y-3322188D02*
X912358Y-3284093D01*
X912358Y-3284093D02*
X912358Y-3236474D01*
X912358Y-3236474D02*
X921882Y-3198379D01*
X921882Y-3198379D02*
X931406Y-3179331D01*
X931406Y-3179331D02*
X940929Y-3169808D01*
X940929Y-3169808D02*
X959977Y-3160284D01*
X1102834Y-3160284D02*
X1102834Y-3198379D01*
X1179025Y-3160284D02*
X1179025Y-3198379D01*
X1474263Y-3436474D02*
X1464739Y-3426950D01*
X1464739Y-3426950D02*
X1445691Y-3398379D01*
X1445691Y-3398379D02*
X1436168Y-3379331D01*
X1436168Y-3379331D02*
X1426644Y-3350760D01*
X1426644Y-3350760D02*
X1417120Y-3303141D01*
X1417120Y-3303141D02*
X1417120Y-3265046D01*
X1417120Y-3265046D02*
X1426644Y-3217427D01*
X1426644Y-3217427D02*
X1436168Y-3188855D01*
X1436168Y-3188855D02*
X1445691Y-3169808D01*
X1445691Y-3169808D02*
X1464739Y-3141236D01*
X1464739Y-3141236D02*
X1474263Y-3131712D01*
X1636168Y-3226950D02*
X1636168Y-3360284D01*
X1588548Y-3150760D02*
X1540929Y-3293617D01*
X1540929Y-3293617D02*
X1664739Y-3293617D01*
X1893310Y-3360284D02*
X1893310Y-3160284D01*
X1979025Y-3360284D02*
X1979025Y-3255522D01*
X1979025Y-3255522D02*
X1969501Y-3236474D01*
X1969501Y-3236474D02*
X1950453Y-3226950D01*
X1950453Y-3226950D02*
X1921882Y-3226950D01*
X1921882Y-3226950D02*
X1902834Y-3236474D01*
X1902834Y-3236474D02*
X1893310Y-3245998D01*
X2102834Y-3360284D02*
X2083787Y-3350760D01*
X2083787Y-3350760D02*
X2074263Y-3341236D01*
X2074263Y-3341236D02*
X2064739Y-3322188D01*
X2064739Y-3322188D02*
X2064739Y-3265046D01*
X2064739Y-3265046D02*
X2074263Y-3245998D01*
X2074263Y-3245998D02*
X2083787Y-3236474D01*
X2083787Y-3236474D02*
X2102834Y-3226950D01*
X2102834Y-3226950D02*
X2131406Y-3226950D01*
X2131406Y-3226950D02*
X2150453Y-3236474D01*
X2150453Y-3236474D02*
X2159977Y-3245998D01*
X2159977Y-3245998D02*
X2169501Y-3265046D01*
X2169501Y-3265046D02*
X2169501Y-3322188D01*
X2169501Y-3322188D02*
X2159977Y-3341236D01*
X2159977Y-3341236D02*
X2150453Y-3350760D01*
X2150453Y-3350760D02*
X2131406Y-3360284D01*
X2131406Y-3360284D02*
X2102834Y-3360284D01*
X2283787Y-3360284D02*
X2264739Y-3350760D01*
X2264739Y-3350760D02*
X2255215Y-3331712D01*
X2255215Y-3331712D02*
X2255215Y-3160284D01*
X2436168Y-3350760D02*
X2417120Y-3360284D01*
X2417120Y-3360284D02*
X2379025Y-3360284D01*
X2379025Y-3360284D02*
X2359977Y-3350760D01*
X2359977Y-3350760D02*
X2350453Y-3331712D01*
X2350453Y-3331712D02*
X2350453Y-3255522D01*
X2350453Y-3255522D02*
X2359977Y-3236474D01*
X2359977Y-3236474D02*
X2379025Y-3226950D01*
X2379025Y-3226950D02*
X2417120Y-3226950D01*
X2417120Y-3226950D02*
X2436168Y-3236474D01*
X2436168Y-3236474D02*
X2445692Y-3255522D01*
X2445692Y-3255522D02*
X2445692Y-3274569D01*
X2445692Y-3274569D02*
X2350453Y-3293617D01*
X2521882Y-3350760D02*
X2540930Y-3360284D01*
X2540930Y-3360284D02*
X2579025Y-3360284D01*
X2579025Y-3360284D02*
X2598073Y-3350760D01*
X2598073Y-3350760D02*
X2607596Y-3331712D01*
X2607596Y-3331712D02*
X2607596Y-3322188D01*
X2607596Y-3322188D02*
X2598073Y-3303141D01*
X2598073Y-3303141D02*
X2579025Y-3293617D01*
X2579025Y-3293617D02*
X2550453Y-3293617D01*
X2550453Y-3293617D02*
X2531406Y-3284093D01*
X2531406Y-3284093D02*
X2521882Y-3265046D01*
X2521882Y-3265046D02*
X2521882Y-3255522D01*
X2521882Y-3255522D02*
X2531406Y-3236474D01*
X2531406Y-3236474D02*
X2550453Y-3226950D01*
X2550453Y-3226950D02*
X2579025Y-3226950D01*
X2579025Y-3226950D02*
X2598073Y-3236474D01*
X2674263Y-3436474D02*
X2683787Y-3426950D01*
X2683787Y-3426950D02*
X2702834Y-3398379D01*
X2702834Y-3398379D02*
X2712358Y-3379331D01*
X2712358Y-3379331D02*
X2721882Y-3350760D01*
X2721882Y-3350760D02*
X2731406Y-3303141D01*
X2731406Y-3303141D02*
X2731406Y-3265046D01*
X2731406Y-3265046D02*
X2721882Y-3217427D01*
X2721882Y-3217427D02*
X2712358Y-3188855D01*
X2712358Y-3188855D02*
X2702834Y-3169808D01*
X2702834Y-3169808D02*
X2683787Y-3141236D01*
X2683787Y-3141236D02*
X2674263Y-3131712D01*
M02*
